<?xml version="1.0" encoding="utf-8"?>
<!-- Generator: Adobe Illustrator 22.1.0, SVG Export Plug-In . SVG Version: 6.00 Build 0)  -->
<svg version="1.1" id="Camada_1" xmlns="http://www.w3.org/2000/svg" xmlns:xlink="http://www.w3.org/1999/xlink" x="0px" y="0px"
	 viewBox="0 0 87.1 79.1" style="enable-background:new 0 0 87.1 79.1;" xml:space="preserve">
<style type="text/css">
	.st0{fill:#010002;}
</style>
<g>
	<path class="st0" d="M43.6,51.4c0.4,0,0.7-0.1,1-0.3l17.6-10v14.6c-3.7,1.6-8.8,2.7-14.3,3c-1.2,0.1-2,1.1-2,2.3c0.1,1.1,1,2,2.1,2
		c0,0,0.1,0,0.1,0c5.3-0.3,10.1-1.3,14-2.7v7.2c-0.9,0.2-1.6,1.1-1.6,2.1V77c0,1.2,0.9,2.1,2.1,2.1c0.7,0,1.2-0.3,1.6-0.8
		c0.4,0.5,1,0.8,1.6,0.8c1.2,0,2.1-0.9,2.1-2.1v-7.4c0-1-0.7-1.8-1.6-2.1V37.2c0-0.8-0.4-1.5-1.1-1.8L45.2,23.9
		c-1-0.6-2.3-0.2-2.9,0.8c-0.6,1-0.2,2.3,0.8,2.9l17.2,9.8l-16.7,9.5L6.4,25.7L43.6,4.6l20.7,11.8c1,0.6,2.3,0.2,2.9-0.8
		c0.6-1,0.2-2.3-0.8-2.9L44.6,0.3c-0.6-0.4-1.4-0.4-2.1,0L1.1,23.9C0.4,24.2,0,25,0,25.7c0,0.8,0.4,1.5,1.1,1.8l41.4,23.6
		C42.8,51.3,43.2,51.4,43.6,51.4z"/>
	<path class="st0" d="M86.1,23.9L74,17c-1-0.6-2.3-0.2-2.9,0.8s-0.2,2.3,0.8,2.9l8.8,5l-6.3,3.6c-1,0.6-1.4,1.9-0.8,2.9
		c0.4,0.7,1.1,1.1,1.8,1.1c0.4,0,0.7-0.1,1-0.3l9.6-5.4c0.7-0.4,1.1-1.1,1.1-1.8C87.1,25,86.7,24.2,86.1,23.9z"/>
	<path class="st0" d="M17.6,44.9c-1.2,0-2.1,0.9-2.1,2.1v4.2c0,4.8,5.5,8.7,15,10.7c0.1,0,0.3,0,0.4,0c1,0,1.9-0.7,2.1-1.7
		c0.2-1.1-0.5-2.3-1.6-2.5c-7.6-1.6-11.6-4.5-11.6-6.6V47C19.7,45.8,18.7,44.9,17.6,44.9z"/>
	<path class="st0" d="M37.1,59.3c-0.4,0.4-0.6,0.9-0.6,1.5c0,0.6,0.2,1.1,0.6,1.5c0.4,0.4,0.9,0.6,1.5,0.6s1.1-0.2,1.5-0.6
		c0.4-0.4,0.6-0.9,0.6-1.5c0-0.6-0.2-1.1-0.6-1.5C39.3,58.5,37.8,58.5,37.1,59.3z"/>
</g>
</svg>
