<svg width="58" height="54" viewBox="0 0 58 54" fill="none" xmlns="http://www.w3.org/2000/svg">
<g clip-path="url(#clip0)">
<path d="M57.3774 51.4688V19.4062C57.3774 19.1825 57.2885 18.9679 57.1303 18.8096C56.9721 18.6514 56.7575 18.5625 56.5337 18.5625C56.3099 18.5625 56.0953 18.6514 55.9371 18.8096C55.7788 18.9679 55.6899 19.1825 55.6899 19.4062V51.4688C55.6899 51.6925 55.601 51.9071 55.4428 52.0654C55.2846 52.2236 55.07 52.3125 54.8462 52.3125H2.53369C2.30992 52.3125 2.0953 52.2236 1.93707 52.0654C1.77884 51.9071 1.68994 51.6925 1.68994 51.4688V19.4062C1.68994 19.1825 1.60105 18.9679 1.44281 18.8096C1.28458 18.6514 1.06997 18.5625 0.846191 18.5625C0.622415 18.5625 0.407804 18.6514 0.24957 18.8096C0.0913363 18.9679 0.00244141 19.1825 0.00244141 19.4062L0.00244141 51.4688C0.00244141 52.8643 1.13813 54 2.53369 54H54.8462C56.2418 54 57.3774 52.8643 57.3774 51.4688Z" fill="#FAFAFA"/>
<path d="M7.59619 38.8125C7.37242 38.8125 7.1578 38.9014 6.99957 39.0596C6.84134 39.2179 6.75244 39.4325 6.75244 39.6562C6.75244 39.88 6.84134 40.0946 6.99957 40.2529C7.1578 40.4111 7.37242 40.5 7.59619 40.5H10.1274V46.4062C10.1274 46.63 10.2163 46.8446 10.3746 47.0029C10.5328 47.1611 10.7474 47.25 10.9712 47.25C11.195 47.25 11.4096 47.1611 11.5678 47.0029C11.726 46.8446 11.8149 46.63 11.8149 46.4062V40.5H21.9399V46.4062C21.9399 46.63 22.0288 46.8446 22.1871 47.0029C22.3453 47.1611 22.5599 47.25 22.7837 47.25C23.0075 47.25 23.2221 47.1611 23.3803 47.0029C23.5385 46.8446 23.6274 46.63 23.6274 46.4062V40.5H33.7524V46.4062C33.7524 46.63 33.8413 46.8446 33.9996 47.0029C34.1578 47.1611 34.3724 47.25 34.5962 47.25C34.82 47.25 35.0346 47.1611 35.1928 47.0029C35.351 46.8446 35.4399 46.63 35.4399 46.4062V40.5H45.5649V46.4062C45.5649 46.63 45.6538 46.8446 45.8121 47.0029C45.9703 47.1611 46.1849 47.25 46.4087 47.25C46.6325 47.25 46.8471 47.1611 47.0053 47.0029C47.1635 46.8446 47.2524 46.63 47.2524 46.4062V40.5H49.7837C50.0075 40.5 50.2221 40.4111 50.3803 40.2529C50.5385 40.0946 50.6274 39.88 50.6274 39.6562C50.6274 39.4325 50.5385 39.2179 50.3803 39.0596C50.2221 38.9014 50.0075 38.8125 49.7837 38.8125H47.2524V30.375H49.7837C50.0075 30.375 50.2221 30.2861 50.3803 30.1279C50.5385 29.9696 50.6274 29.755 50.6274 29.5312C50.6274 29.3075 50.5385 29.0929 50.3803 28.9346C50.2221 28.7764 50.0075 28.6875 49.7837 28.6875H47.2524V21.0938C47.2524 20.87 47.1635 20.6554 47.0053 20.4971C46.8471 20.3389 46.6325 20.25 46.4087 20.25C46.1849 20.25 45.9703 20.3389 45.8121 20.4971C45.6538 20.6554 45.5649 20.87 45.5649 21.0938V28.6875H35.4399V21.0938C35.4399 20.87 35.351 20.6554 35.1928 20.4971C35.0346 20.3389 34.82 20.25 34.5962 20.25C34.3724 20.25 34.1578 20.3389 33.9996 20.4971C33.8413 20.6554 33.7524 20.87 33.7524 21.0938V28.6875H23.6274V21.0938C23.6274 20.87 23.5385 20.6554 23.3803 20.4971C23.2221 20.3389 23.0075 20.25 22.7837 20.25C22.5599 20.25 22.3453 20.3389 22.1871 20.4971C22.0288 20.6554 21.9399 20.87 21.9399 21.0938V28.6875H11.8149V21.0938C11.8149 20.87 11.726 20.6554 11.5678 20.4971C11.4096 20.3389 11.195 20.25 10.9712 20.25C10.7474 20.25 10.5328 20.3389 10.3746 20.4971C10.2163 20.6554 10.1274 20.87 10.1274 21.0938V28.6875H7.59619C7.37242 28.6875 7.1578 28.7764 6.99957 28.9346C6.84134 29.0929 6.75244 29.3075 6.75244 29.5312C6.75244 29.755 6.84134 29.9696 6.99957 30.1279C7.1578 30.2861 7.37242 30.375 7.59619 30.375H10.1274V38.8125H7.59619ZM45.5649 30.375V38.8125H35.4399V30.375H45.5649ZM33.7524 30.375V38.8125H23.6274V30.375H33.7524ZM11.8149 30.375H21.9399V38.8125H11.8149V30.375Z" fill="#FAFAFA"/>
<path d="M48.0962 5.0625H55.2681C55.4149 5.0625 55.6899 5.0625 55.6899 5.90625V13.5H1.68994V5.90625C1.68994 5.68247 1.77884 5.46786 1.93707 5.30963C2.0953 5.15139 2.30992 5.0625 2.53369 5.0625H9.28369C9.50747 5.0625 9.72208 4.97361 9.88031 4.81537C10.0385 4.65714 10.1274 4.44253 10.1274 4.21875C10.1274 3.99497 10.0385 3.78036 9.88031 3.62213C9.72208 3.4639 9.50747 3.375 9.28369 3.375H2.53369C1.13813 3.375 0.00244141 4.51069 0.00244141 5.90625V14.3438C0.00244141 14.5675 0.0913363 14.7821 0.24957 14.9404C0.407804 15.0986 0.622415 15.1875 0.846191 15.1875H56.5337C56.7575 15.1875 56.9721 15.0986 57.1303 14.9404C57.2885 14.7821 57.3774 14.5675 57.3774 14.3438V5.90625C57.3774 4.03988 56.2873 3.375 55.2681 3.375H48.0962C47.8724 3.375 47.6578 3.4639 47.4996 3.62213C47.3413 3.78036 47.2524 3.99497 47.2524 4.21875C47.2524 4.44253 47.3413 4.65714 47.4996 4.81537C47.6578 4.97361 47.8724 5.0625 48.0962 5.0625Z" fill="#FAFAFA"/>
<path d="M37.9712 5.0625C38.195 5.0625 38.4096 4.97361 38.5678 4.81537C38.726 4.65714 38.8149 4.44253 38.8149 4.21875C38.8149 3.99497 38.726 3.78036 38.5678 3.62213C38.4096 3.4639 38.195 3.375 37.9712 3.375H19.4087C19.1849 3.375 18.9703 3.4639 18.8121 3.62213C18.6538 3.78036 18.5649 3.99497 18.5649 4.21875C18.5649 4.44253 18.6538 4.65714 18.8121 4.81537C18.9703 4.97361 19.1849 5.0625 19.4087 5.0625H37.9712Z" fill="#FAFAFA"/>
<path d="M15.1899 7.59375V0.84375C15.1899 0.619974 15.101 0.405362 14.9428 0.247129C14.7846 0.0888949 14.57 0 14.3462 0C14.1224 0 13.9078 0.0888949 13.7496 0.247129C13.5913 0.405362 13.5024 0.619974 13.5024 0.84375V7.59375C13.5024 7.81753 13.5913 8.03214 13.7496 8.19037C13.9078 8.34861 14.1224 8.4375 14.3462 8.4375C14.57 8.4375 14.7846 8.34861 14.9428 8.19037C15.101 8.03214 15.1899 7.81753 15.1899 7.59375Z" fill="#FAFAFA"/>
<path d="M43.0337 8.4375C43.2575 8.4375 43.4721 8.34861 43.6303 8.19037C43.7885 8.03214 43.8774 7.81753 43.8774 7.59375V0.84375C43.8774 0.619974 43.7885 0.405362 43.6303 0.247129C43.4721 0.0888949 43.2575 0 43.0337 0C42.8099 0 42.5953 0.0888949 42.4371 0.247129C42.2788 0.405362 42.1899 0.619974 42.1899 0.84375V7.59375C42.1899 7.81753 42.2788 8.03214 42.4371 8.19037C42.5953 8.34861 42.8099 8.4375 43.0337 8.4375Z" fill="#FAFAFA"/>
</g>
<defs>
<clipPath id="clip0">
<rect width="57.38" height="54" fill="white"/>
</clipPath>
</defs>
</svg>
