<svg width="54" height="54" viewBox="0 0 54 54" fill="none" xmlns="http://www.w3.org/2000/svg">
<path d="M19.4799 21.9424C17.7007 21.9424 16.2533 23.3898 16.2533 25.169C16.2533 26.9481 17.7007 28.3956 19.4799 28.3956C21.2591 28.3956 22.7065 26.9481 22.7065 25.169C22.7065 23.3898 21.2591 21.9424 19.4799 21.9424ZM19.4799 26.8134C18.5731 26.8134 17.8354 26.0758 17.8354 25.169C17.8354 24.2621 18.5731 23.5245 19.4799 23.5245C20.3866 23.5245 21.1244 24.2621 21.1244 25.169C21.1244 26.0757 20.3866 26.8134 19.4799 26.8134Z" fill="#FAFAFA"/>
<path d="M27.8919 21.9424C26.1128 21.9424 24.6652 23.3898 24.6652 25.169C24.6652 26.9481 26.1128 28.3956 27.8919 28.3956C29.6711 28.3956 31.1185 26.9481 31.1185 25.169C31.1185 23.3898 29.6711 21.9424 27.8919 21.9424ZM27.8919 26.8134C26.985 26.8134 26.2474 26.0758 26.2474 25.169C26.2474 24.2621 26.9851 23.5245 27.8919 23.5245C28.7988 23.5245 29.5364 24.2621 29.5364 25.169C29.5364 26.0758 28.7986 26.8134 27.8919 26.8134Z" fill="#FAFAFA"/>
<path d="M36.304 21.9424C34.5248 21.9424 33.0774 23.3898 33.0774 25.169C33.0774 26.9481 34.5248 28.3956 36.304 28.3956C38.0832 28.3956 39.5306 26.9481 39.5306 25.169C39.5306 23.3898 38.083 21.9424 36.304 21.9424ZM36.304 26.8134C35.3972 26.8134 34.6595 26.0758 34.6595 25.169C34.6595 24.2621 35.3973 23.5245 36.304 23.5245C37.2107 23.5245 37.9485 24.2621 37.9485 25.169C37.9485 26.0758 37.2107 26.8134 36.304 26.8134Z" fill="#FAFAFA"/>
<path d="M19.4799 29.813C17.7007 29.813 16.2533 31.2604 16.2533 33.0396C16.2533 34.8187 17.7007 36.2662 19.4799 36.2662C21.2591 36.2662 22.7065 34.8187 22.7065 33.0396C22.7065 31.2604 21.2591 29.813 19.4799 29.813ZM19.4799 34.684C18.5731 34.684 17.8354 33.9464 17.8354 33.0396C17.8354 32.1327 18.5731 31.3951 19.4799 31.3951C20.3866 31.3951 21.1244 32.1327 21.1244 33.0396C21.1244 33.9464 20.3866 34.684 19.4799 34.684Z" fill="#FAFAFA"/>
<path d="M36.304 29.813C34.5248 29.813 33.0774 31.2604 33.0774 33.0396C33.0774 34.8187 34.5248 36.2662 36.304 36.2662C38.0832 36.2662 39.5306 34.8187 39.5306 33.0396C39.5305 31.2604 38.083 29.813 36.304 29.813ZM36.304 34.684C35.3972 34.684 34.6595 33.9464 34.6595 33.0396C34.6595 32.1327 35.3973 31.3951 36.304 31.3951C37.2107 31.3951 37.9485 32.1327 37.9485 33.0396C37.9484 33.9464 37.2107 34.684 36.304 34.684Z" fill="#FAFAFA"/>
<path d="M27.8919 29.813C26.1128 29.813 24.6652 31.2604 24.6652 33.0396C24.6652 34.8187 26.1128 36.2662 27.8919 36.2662C29.6711 36.2662 31.1185 34.8187 31.1185 33.0396C31.1185 31.2604 29.6711 29.813 27.8919 29.813ZM27.8919 34.684C26.985 34.684 26.2474 33.9464 26.2474 33.0396C26.2474 32.1327 26.9851 31.3951 27.8919 31.3951C28.7988 31.3951 29.5364 32.1327 29.5364 33.0396C29.5364 33.9464 28.7986 34.684 27.8919 34.684Z" fill="#FAFAFA"/>
<path d="M27.892 37.6836C26.1128 37.6836 24.6653 39.1311 24.6653 40.9103C24.6653 42.6894 26.1128 44.1369 27.892 44.1369C29.6711 44.1369 31.1186 42.6894 31.1186 40.9103C31.1186 39.1311 29.6711 37.6836 27.892 37.6836ZM27.892 42.5546C26.985 42.5546 26.2474 41.817 26.2474 40.9102C26.2475 40.0035 26.9851 39.2656 27.892 39.2656C28.7988 39.2656 29.5364 40.0032 29.5364 40.9102C29.5364 41.817 28.7987 42.5546 27.892 42.5546Z" fill="#FAFAFA"/>
<path d="M19.4799 37.6836C17.7007 37.6836 16.2533 39.1311 16.2533 40.9103C16.2533 42.6894 17.7007 44.1369 19.4799 44.1369C21.2591 44.1369 22.7065 42.6894 22.7065 40.9103C22.7065 39.1311 21.2591 37.6836 19.4799 37.6836ZM19.4799 42.5546C18.5731 42.5546 17.8354 41.817 17.8354 40.9102C17.8354 40.0033 18.5731 39.2656 19.4799 39.2656C20.3866 39.2656 21.1244 40.0032 21.1244 40.9102C21.1243 41.817 20.3866 42.5546 19.4799 42.5546Z" fill="#FAFAFA"/>
<path d="M12.1867 25.1691L13.3496 24.0062C13.6586 23.6972 13.6586 23.1965 13.3495 22.8875C13.0407 22.5786 12.5399 22.5785 12.2308 22.8876L11.068 24.0504L9.90524 22.8876C9.59632 22.5786 9.09545 22.5785 8.78653 22.8875C8.47751 23.1965 8.47751 23.6972 8.78643 24.0062L9.94932 25.1691L8.78643 26.332C8.4773 26.6408 8.4773 27.1415 8.78632 27.4507C8.94073 27.6051 9.14323 27.6823 9.34562 27.6823C9.54802 27.6823 9.75052 27.6051 9.90503 27.4506L11.0678 26.2878L12.2306 27.4506C12.3851 27.6051 12.5875 27.6823 12.79 27.6823C12.9924 27.6823 13.1949 27.6051 13.3493 27.4507C13.6583 27.1416 13.6583 26.6409 13.3494 26.332L12.1867 25.1691Z" fill="#FAFAFA"/>
<path d="M12.1867 33.0397L13.3496 31.8768C13.6586 31.5679 13.6586 31.0671 13.3495 30.7581C13.0407 30.4493 12.5399 30.4491 12.2308 30.7582L11.068 31.921L9.90524 30.7582C9.59632 30.4491 9.09545 30.4493 8.78653 30.7581C8.47751 31.0671 8.47751 31.5679 8.78643 31.8768L9.94932 33.0397L8.78643 34.2026C8.4773 34.5114 8.4773 35.0122 8.78632 35.3213C8.94073 35.4757 9.14323 35.5529 9.34562 35.5529C9.54802 35.5529 9.75052 35.4757 9.90503 35.3212L11.0678 34.1584L12.2306 35.3212C12.3851 35.4757 12.5875 35.5529 12.79 35.5529C12.9924 35.5529 13.1949 35.4757 13.3493 35.3213C13.6583 35.0123 13.6583 34.5115 13.3494 34.2026L12.1867 33.0397Z" fill="#FAFAFA"/>
<path d="M13.3495 42.0729L12.1867 40.9101L13.3495 39.7473C13.6582 39.4384 13.6582 38.9376 13.3493 38.6285C13.0403 38.3196 12.5395 38.3196 12.2305 38.6285L11.0677 39.7913L9.90488 38.6285C9.59586 38.3196 9.09509 38.3196 8.78607 38.6285C8.47715 38.9375 8.47715 39.4382 8.78607 39.7473L9.94886 40.9101L8.78607 42.0729C8.47715 42.3819 8.47715 42.8826 8.78607 43.1917C8.94058 43.3461 9.14308 43.4233 9.34548 43.4233C9.54787 43.4233 9.75037 43.3461 9.90488 43.1917L11.0677 42.0289L12.2305 43.1917C12.385 43.3461 12.5875 43.4233 12.7899 43.4233C12.9923 43.4233 13.1948 43.3461 13.3493 43.1917C13.6584 42.8825 13.6584 42.3818 13.3495 42.0729Z" fill="#FAFAFA"/>
<path d="M53.9545 44.4263L51.7972 33.0731C51.7157 32.644 51.3006 32.3621 50.8722 32.4437C50.4431 32.5252 50.1613 32.9393 50.2428 33.3686L52.4001 44.7218C52.5208 45.3573 51.9843 45.9571 51.2535 45.9571H39.5475L47.1402 38.3645C47.2791 38.2256 47.3718 38.0227 47.3718 37.8051V18.2601L49.5412 29.6769C49.6227 30.1061 50.0372 30.388 50.4661 30.3063C50.8952 30.2248 51.177 29.8108 51.0955 29.3814L47.3666 9.75819C47.313 8.59075 46.3492 7.65693 45.1689 7.65693H38.2364V5.11334C38.2364 4.67639 37.8824 4.32233 37.4454 4.32233C37.0085 4.32233 36.6544 4.67639 36.6544 5.11334V7.65683H31.3567V5.11334C31.3567 4.67639 31.0026 4.32233 30.5657 4.32233C30.1287 4.32233 29.7747 4.67639 29.7747 5.11334V7.65683H24.4769V5.11334C24.4769 4.67639 24.1228 4.32233 23.6859 4.32233C23.2489 4.32233 22.8948 4.67639 22.8948 5.11334V7.65683H17.5971V5.11334C17.5971 4.67639 17.2431 4.32233 16.8061 4.32233C16.3692 4.32233 16.0151 4.67639 16.0151 5.11334V7.65683H10.7174V5.11334C10.7174 4.67639 10.3634 4.32233 9.9264 4.32233C9.48944 4.32233 9.13539 4.67639 9.13539 5.11334V7.65683H2.20293C0.988242 7.65693 0 8.64507 0 9.85986V47.4749C0 48.6895 0.988242 49.6777 2.20293 49.6777H21.8402C22.2771 49.6777 22.6312 49.3236 22.6312 48.8867C22.6312 48.4497 22.2771 48.0957 21.8402 48.0957H2.20293C1.86068 48.0957 1.58214 47.8172 1.58214 47.475V17.9277H45.7898V37.0137H36.9108C35.6961 37.0137 34.708 38.002 34.708 39.2167V48.0956H25.5317C25.0947 48.0956 24.7406 48.4496 24.7406 48.8866C24.7406 49.3235 25.0947 49.6776 25.5317 49.6776H35.499C35.7031 49.6776 35.9077 49.5967 36.0584 49.446L37.9653 47.5391H51.2536C52.9717 47.5391 54.2619 46.0433 53.9545 44.4263ZM1.58214 16.3456V9.85986C1.58214 9.51761 1.86068 9.23907 2.20293 9.23907H9.13539V12.7923C9.13539 13.2293 9.48944 13.5833 9.9264 13.5833C10.3634 13.5833 10.7174 13.2293 10.7174 12.7923V9.23907H16.0151V12.7923C16.0151 13.2293 16.3692 13.5833 16.8061 13.5833C17.2431 13.5833 17.5971 13.2293 17.5971 12.7923V9.23907H22.8948V12.7923C22.8948 13.2293 23.2489 13.5833 23.6859 13.5833C24.1228 13.5833 24.4769 13.2293 24.4769 12.7923V9.23907H29.7747V12.7923C29.7747 13.2293 30.1287 13.5833 30.5657 13.5833C31.0026 13.5833 31.3567 13.2293 31.3567 12.7923V9.23907H36.6544V12.7923C36.6544 13.2293 37.0085 13.5833 37.4454 13.5833C37.8824 13.5833 38.2364 13.2293 38.2364 12.7923V9.23907H45.1689C45.5111 9.23907 45.7897 9.51761 45.7897 9.85986V16.3457H1.58214V16.3456ZM36.29 46.9768V39.2168C36.29 38.8745 36.5684 38.596 36.9107 38.596H44.6709C43.8793 39.3876 37.0832 46.1836 36.29 46.9768Z" fill="#FAFAFA"/>
</svg>
