<?xml version="1.0" encoding="utf-8"?>
<svg version="1.1" id="Capa_1" xmlns="http://www.w3.org/2000/svg" xmlns:xlink="http://www.w3.org/1999/xlink" x="0px" y="0px"
	 viewBox="0 0 512 512" style="enable-background:new 0 0 512 512;" xml:space="preserve">
<g>
	<g>
		<path d="M475,0H77C49.4,0,27,22.4,27,50v49.7c0,5.5,4.5,10,10,10s10-4.5,10-10V50c0-16.5,13.5-30,30-30h14v327.3
			c0,5.5,4.5,10,10,10s10-4.5,10-10V20h354v392H77c-11.2,0-21.6,3.7-30,10V191c0-5.5-4.5-10-10-10s-10,4.5-10,10v271
			c0,27.6,22.4,50,50,50h398c5.5,0,10-4.5,10-10V10C485,4.5,480.5,0,475,0z M465,452h-86.9c-5.5,0-10,4.5-10,10s4.5,10,10,10H465v20
			H77c-16.5,0-30-13.5-30-30s13.5-30,30-30h388V452z"/>
	</g>
</g>
<g>
	<g>
		<path d="M44.1,141.9c-1.9-1.9-4.4-2.9-7.1-2.9s-5.2,1.1-7.1,2.9c-1.9,1.9-2.9,4.4-2.9,7.1s1.1,5.2,2.9,7.1
			c1.9,1.9,4.4,2.9,7.1,2.9s5.2-1.1,7.1-2.9c1.9-1.9,2.9-4.4,2.9-7.1S45.9,143.8,44.1,141.9z"/>
	</g>
</g>
<g>
	<g>
		<path d="M108.1,377c-1.9-1.9-4.4-2.9-7.1-2.9s-5.2,1.1-7.1,2.9c-1.9,1.9-2.9,4.4-2.9,7.1c0,2.6,1.1,5.2,2.9,7.1
			c1.9,1.9,4.4,2.9,7.1,2.9s5.2-1.1,7.1-2.9s2.9-4.4,2.9-7.1C111,381.5,109.9,378.9,108.1,377z"/>
	</g>
</g>
<g>
	<g>
		<path d="M347.7,454.9c-1.9-1.9-4.4-2.9-7.1-2.9c-2.6,0-5.2,1.1-7.1,2.9c-1.9,1.9-2.9,4.4-2.9,7.1s1.1,5.2,2.9,7.1
			c1.9,1.9,4.4,2.9,7.1,2.9c2.6,0,5.2-1.1,7.1-2.9c1.9-1.9,2.9-4.4,2.9-7.1S349.5,456.8,347.7,454.9z"/>
	</g>
</g>
<g>
	<g>
		<path d="M289.5,199.1v-86.4c19.4,4.4,34,21.7,34,42.4c0,5.2,4.2,9.5,9.5,9.5c5.2,0,9.5-4.2,9.5-9.5c0-31.2-23-57.1-53-61.7V79.1
			c0-5.2-4.2-9.5-9.5-9.5c-5.2,0-9.5,4.2-9.5,9.5v14.4c-29.9,4.6-53,30.5-53,61.7s23,57.1,53,61.7v86c-18.3-5.1-31.8-21.8-31.8-41.7
			c0-5.2-4.2-9.5-9.5-9.5c-5.2,0-9.5,4.2-9.5,9.5c0,30.5,21.9,55.9,50.8,61.4v14.7c0,5.2,4.2,9.5,9.5,9.5c5.2,0,9.5-4.2,9.5-9.5v-14
			c31-3.6,55.1-30.1,55.1-62C344.6,229.2,320.5,202.8,289.5,199.1z M270.5,197.5c-19.4-4.4-34-21.7-34-42.4s14.6-38,34-42.4V197.5z
			 M289.5,303.9v-85.5c20.5,3.5,36.1,21.3,36.1,42.8C325.6,282.6,310,300.4,289.5,303.9z"/>
	</g>
</g>
</svg>
