<?xml version="1.0" encoding="iso-8859-1"?>
<!-- Generator: Adobe Illustrator 19.0.0, SVG Export Plug-In . SVG Version: 6.00 Build 0)  -->
<svg version="1.1" id="Capa_1" xmlns="http://www.w3.org/2000/svg" xmlns:xlink="http://www.w3.org/1999/xlink" x="0px" y="0px"
	 viewBox="0 0 512 512" style="enable-background:new 0 0 512 512;" xml:space="preserve">
<g>
	<g>
		<path d="M504.499,216.798c4.143,0,7.5-3.357,7.5-7.5v-24.646c0-17.776-18.062-30.54-34.909-23.233v-0.042
			c0-18.272-18.983-31.026-35.917-22.772c-6.894-23.519-40.426-24.052-47.798,0.051c-16.784-8.269-36.017,4.164-36.017,22.721
			v99.485c-9.892-8.576-20.382-15.39-30.291-19.603l-0.242-0.103c-16.802-7.673-32.463-3.474-39.898,10.697
			c-7.89,15.044-0.387,23.433,14.203,32.945c14.256,9.299,36.186,28.578,38.927,45.166c3.138,18.962,16.586,32.613,24.323,39.063
			c3.272,2.725,1.336,5.281,1.902,24.404c-24.942,15.793-13.669,54.404,15.723,54.404h95.42c29.57,0,40.655-38.94,15.495-54.55
			c0.034-17.822-1.025-23.688,4.642-31.257c9.444-12.614,14.436-27.632,14.436-43.429v-74.298c0-4.143-3.357-7.5-7.5-7.5
			c-4.143,0-7.5,3.357-7.5,7.5v74.298c0,12.531-3.957,24.439-11.443,34.439c-6.754,9.021-7.634,17.5-7.634,27.499v8.335
			c-1.055,0-34.228,0-96.636,0v-15.827c0-6.011-2.66-11.677-7.299-15.541c-6.137-5.115-16.783-15.814-19.128-29.987
			c-3.532-21.382-27.466-43.5-45.532-55.283l-0.129-0.084c-4.826-3.482-8.981-6.489-10.213-8.5c-0.21-0.344-0.702-1.148,1.228-4.826
			c5.091-9.707,15.95-6.046,20.385-4.02c0.125,0.058,0.327,0.145,0.603,0.262c6.395,2.719,19.312,9.487,33.957,24.269
			c6.304,6.361,17.203,1.923,17.203-7.061V161.377c0-8.991,10.335-13.607,16.733-7.648c2.048,1.905,3.176,4.494,3.176,7.289v95.314
			c0,4.143,3.357,7.5,7.5,7.5s7.5-3.357,7.5-7.5c0-25.457,0-86.667,0-110.267c0-9.003,10.506-13.758,16.902-7.521
			c4.785,4.665,2.354,9.89,3.007,22.475v95.314c0,4.143,3.357,7.5,7.5,7.5s7.5-3.357,7.5-7.5v-95.314
			c0-5.82,4.967-10.456,10.902-9.911c5.051,0.456,9.008,4.967,9.008,10.271c0,12.397,0,86.174,0,94.954c0,4.143,3.357,7.5,7.5,7.5
			c4.143,0,7.5-3.357,7.5-7.5v-72.037c0-2.829,1.151-5.44,3.242-7.351c6.431-5.88,16.666-1.227,16.666,7.709v24.646
			C496.999,213.441,500.356,216.798,504.499,216.798z M381.987,403.872h95.459c7.977,0.011,14.463,6.501,14.463,14.481
			c0,7.984-6.496,14.481-14.482,14.481h-95.42c-7.984,0-14.481-6.496-14.481-14.481
			C367.525,410.373,374.012,403.883,381.987,403.872z"/>
	</g>
</g>
<g>
	<g>
		<path d="M265.735,297.804c4.143,0,7.5-3.357,7.5-7.5V136.269c0.002-21.532-22.806-36.142-42.291-25.596
			c-0.846-21.49-23.984-34.975-42.921-24.088c-2.804-12.755-14.424-22.788-28.717-22.407c-13.13,0.338-24.17,9.907-27.115,22.441
			c-18.893-11.063-43.042,2.694-43.042,25.201v123.973c-21.595-19.47-38.726-25.667-39.211-25.931
			c-19.514-8.915-37.673-4.104-46.253,12.25c-9.835,18.747,1.564,26.974,15.999,37.389c0.075,0.054,0.296,0.206,0.658,0.442
			c17.65,11.506,44.417,35.107,47.838,55.756c3.714,22.456,19.703,38.675,28.904,46.345c1.826,1.522,2.873,3.738,2.873,6.081v21.41
			c-13.284,2.859-23.272,14.692-23.272,28.818c0,16.257,13.227,29.482,29.483,29.482h15.253c4.143,0,7.5-3.357,7.5-7.5
			c0-4.143-3.357-7.5-7.5-7.5h-15.253c-7.985,0-14.482-6.496-14.482-14.481c0-7.984,6.496-14.481,14.482-14.481
			c15.349,0,120.718,0,136.424,0c7.984,0,14.481,6.496,14.481,14.481c0,7.984-6.496,14.481-14.481,14.481h-86.169
			c-4.143,0-7.5,3.357-7.5,7.5c0,4.143,3.357,7.5,7.5,7.5h86.169c16.257,0,29.482-13.226,29.482-29.482
			c0-13.649-9.323-25.156-21.936-28.5v-12.348c0.236-3.598-1.439-13.819,5.935-23.668c5.959-7.959,10.46-16.819,13.378-26.333
			c1.214-3.961-1.012-8.155-4.972-9.37c-3.963-1.211-8.154,1.011-9.37,4.972c-8.038,26.221-19.971,21.75-19.971,54.091v11.675
			H114.957v-20.746c0-6.807-3.014-13.224-8.269-17.604c-7.601-6.335-20.787-19.603-23.709-37.272
			c-4.363-26.351-32.628-50.84-54.628-65.993c-15.171-10.951-14.951-11.374-11.383-18.178c5.689-10.844,16.404-9.953,27.434-5.27
			c7.851,3.338,23.699,11.64,41.62,29.728c3.04,3.068,7.582,3.991,11.576,2.35c3.979-1.638,6.551-5.478,6.551-9.785V111.82
			c0-7.359,5.539-13.524,12.61-14.034c7.975-0.567,14.661,5.683,14.661,13.599v115.414c0,4.143,3.357,7.5,7.5,7.5s7.5-3.357,7.5-7.5
			c0-19.981,0-117.204,0-133.52c0-7.59,5.953-13.919,13.272-14.107c8.003-0.15,14,6.215,14,13.632
			c0,16.936,0.001,117.364,0.001,133.995c0,4.143,3.357,7.5,7.5,7.5s7.5-3.357,7.5-7.5V111.365
			c0.005-3.869,1.581-7.438,4.441-10.051c8.815-8.051,22.829-1.672,22.829,10.506c0,11.709,0,102.726,0,114.979
			c0,4.143,3.357,7.5,7.5,7.5s7.5-3.357,7.5-7.5v-90.963c0-3.876,1.577-7.452,4.441-10.07c8.861-8.097,22.828-1.581,22.828,10.504
			v154.034C258.234,294.447,261.591,297.804,265.735,297.804z"/>
	</g>
</g>
<g>
</g>
<g>
</g>
<g>
</g>
<g>
</g>
<g>
</g>
<g>
</g>
<g>
</g>
<g>
</g>
<g>
</g>
<g>
</g>
<g>
</g>
<g>
</g>
<g>
</g>
<g>
</g>
<g>
</g>
</svg>
