<svg width="520" height="520" viewBox="0 0 520 520" fill="none" xmlns="http://www.w3.org/2000/svg">
<g clip-path="url(#clip0)">
<path d="M508.331 451.788L316.403 259.47L507.291 68.2028C522.858 52.5965 522.858 27.2982 507.291 11.7004C491.715 -3.89737 466.476 -3.89737 450.9 11.7004L260.013 202.968L69.1337 11.7004C53.5584 -3.89737 28.3188 -3.89737 12.7435 11.7004C-2.83189 27.3067 -2.83189 52.605 12.7435 68.2028L203.623 259.47L11.6772 451.788C-3.89811 467.395 -3.89811 492.685 11.6772 508.291C19.4649 516.094 29.6665 519.991 39.8766 519.991C50.0868 519.991 60.2884 516.094 68.076 508.291L260.013 315.972L451.941 508.291C459.729 516.094 469.93 519.991 480.14 519.991C490.351 519.991 500.552 516.094 508.34 508.291C523.898 492.693 523.898 467.395 508.331 451.788Z" fill="#CB0505"/>
</g>
<defs>
<clipPath id="clip0">
<rect width="520" height="520" fill="white"/>
</clipPath>
</defs>
</svg>
