<svg width="54" height="54" viewBox="0 0 54 54" fill="none" xmlns="http://www.w3.org/2000/svg">
<path d="M40.5 8.4375H13.5C10.7578 8.4375 8.96484 9.91406 8.4375 12.6562L5.0625 28.6875V40.5C5.0664 41.8415 5.60102 43.1269 6.54958 44.0754C7.49814 45.024 8.78354 45.5586 10.125 45.5625H43.875C45.2165 45.5586 46.5019 45.024 47.4504 44.0754C48.399 43.1269 48.9336 41.8415 48.9375 40.5V28.6875L45.5625 12.6562C45.0352 9.80859 43.1367 8.4375 40.5 8.4375Z" stroke="#FAFAFA" stroke-width="3.375" stroke-linejoin="round"/>
<path d="M5.0625 28.6875H20.25" stroke="#FAFAFA" stroke-width="3.375" stroke-linecap="round" stroke-linejoin="round"/>
<path d="M33.75 28.6875H48.9375" stroke="#FAFAFA" stroke-width="3.375" stroke-linecap="round" stroke-linejoin="round"/>
<path d="M20.25 28.6875C20.25 30.4777 20.9612 32.1946 22.227 33.4605C23.4929 34.7263 25.2098 35.4375 27 35.4375C28.7902 35.4375 30.5071 34.7263 31.773 33.4605C33.0388 32.1946 33.75 30.4777 33.75 28.6875" stroke="#FAFAFA" stroke-width="3.375" stroke-linecap="round" stroke-linejoin="round"/>
<path d="M15.1875 15.1875H38.8125" stroke="#FAFAFA" stroke-width="3.375" stroke-linecap="round" stroke-linejoin="round"/>
<path d="M13.5 21.9375H40.5" stroke="#FAFAFA" stroke-width="3.375" stroke-linecap="round" stroke-linejoin="round"/>
</svg>
