<svg width="60" height="60" viewBox="0 0 60 60" fill="none" xmlns="http://www.w3.org/2000/svg">
<path d="M30.1007 32.2848C28.8148 32.2848 27.7778 31.288 27.7778 30.0313C27.7778 28.7745 28.8148 27.7778 30.1007 27.7778C31.3866 27.7778 32.4236 28.7745 32.4236 30.0313C32.4236 31.288 31.3866 32.2848 30.1007 32.2848ZM30.1007 28.6878C29.3541 28.6878 28.7319 29.2946 28.7319 30.0313C28.7319 30.768 29.3541 31.3747 30.1007 31.3747C30.8473 31.3747 31.4695 30.768 31.4695 30.0313C31.4695 29.2946 30.8473 28.6878 30.1007 28.6878Z" fill="#FAFAFA"/>
<path d="M22.2391 47.1243H36.2593C36.5082 47.1243 36.7571 47.341 36.7571 47.6011C36.7571 47.8611 36.5497 48.0778 36.2593 48.0778H22.2391C21.9903 48.0778 21.7414 47.8611 21.7414 47.6011C21.7829 47.341 21.9903 47.1243 22.2391 47.1243Z" fill="#FAFAFA"/>
<path d="M26.0138 43.8741H40.034C40.2829 43.8741 40.5317 44.0908 40.5317 44.3508C40.5317 44.6108 40.3243 44.8275 40.034 44.8275H26.0138C25.7649 44.8275 25.516 44.6108 25.516 44.3508C25.516 44.0908 25.7649 43.8741 26.0138 43.8741Z" fill="#FAFAFA"/>
<path d="M29.4964 24.4445C37.0872 24.4445 44.1305 29.725 46.163 37.2222C48.6104 46.1929 42.5108 55.9498 33.3852 58.3333C24.2597 60.7169 14.1659 55.0385 11.7186 46.1111C11.2208 44.2477 10.9971 42.4624 11.163 40.5556C11.163 40.5556 5.60749 37.1715 2.5362 35.5049C2.16359 35.3026 2.1912 34.6104 2.27415 34.3937C2.31564 34.1771 2.78508 34.0726 2.99248 34.0726L13.9408 33.3333C14.9778 31.3399 16.4061 29.757 16.7186 29.4445C17.0311 29.132 17.8297 28.3333 18.3853 28.8889C18.9408 29.4445 17.8297 30.5556 17.8297 30.5556L14.4964 35L5.60749 35.5049L12.5743 39.5764C12.7402 39.663 12.8232 39.8364 12.8232 40.0097C12.6158 41.9165 12.7817 43.8234 13.3209 45.6435C15.5609 54.0942 24.4375 59.1212 33.0653 56.8677C41.6931 54.6142 46.8366 45.9035 44.5138 37.4529C42.1909 29.0022 33.3142 23.9751 24.6864 26.272C23.4005 26.6187 22.88 26.922 21.7186 27.5721C21.4697 27.7021 20.6777 28.1757 20.331 27.5721C19.9844 26.9685 20.9142 26.402 21.163 26.272C22.366 25.6219 22.572 25.3467 23.9408 25C25.4341 24.5666 28.0446 24.4445 29.4964 24.4445Z" fill="#FAFAFA"/>
<path d="M38.9239 13.4312H24.9038C24.6549 13.4312 24.406 13.2145 24.406 12.9545C24.406 12.6945 24.6134 12.4778 24.9038 12.4778H38.9239C39.1728 12.4778 39.4217 12.6945 39.4217 12.9545C39.3802 13.2145 39.1728 13.4312 38.9239 13.4312Z" fill="#FAFAFA"/>
<path d="M35.1493 16.6814H21.1291C20.8802 16.6814 20.6313 16.4648 20.6313 16.2047C20.6313 15.9447 20.8387 15.728 21.1291 15.728H35.1493C35.3982 15.728 35.6471 15.9447 35.6471 16.2047C35.6471 16.4648 35.3982 16.6814 35.1493 16.6814Z" fill="#FAFAFA"/>
<path d="M31.6667 36.1111C24.0759 36.1111 17.0326 30.8306 15 23.3333C12.5527 14.3626 18.6523 4.60572 27.7779 2.2222C36.9034 -0.16132 46.9972 5.51704 49.4445 14.4444C49.9423 16.3079 50.166 18.0932 50 20C50 20 55.5556 23.384 58.6269 25.0507C58.9995 25.2529 58.9719 25.9451 58.8889 26.1618C58.8475 26.3785 58.378 26.483 58.1706 26.483L47.2223 27.2222C46.1853 29.2157 44.757 30.7986 44.4445 31.1111C44.132 31.4236 43.3334 32.2222 42.7778 31.6666C42.2223 31.1111 43.3334 30 43.3334 30L46.6667 25.5555L55.5556 25.0507L48.5888 20.9792C48.4229 20.8925 48.3399 20.7192 48.3399 20.5458C48.5473 18.639 48.3814 16.7322 47.8421 14.912C45.6022 6.46137 36.7256 1.43431 28.0978 3.68782C19.4699 5.94133 14.3264 14.652 16.6493 23.1027C18.9722 31.5534 27.8489 36.5804 36.4767 34.2836C37.7625 33.9369 38.2831 33.6335 39.4445 32.9835C39.6934 32.8535 40.4854 32.3799 40.8321 32.9835C41.1787 33.5871 40.2489 34.1536 40 34.2836C38.7971 34.9336 38.5911 35.2088 37.2223 35.5555C35.729 35.9889 33.1185 36.1111 31.6667 36.1111Z" fill="#FAFAFA"/>
</svg>
