<?xml version="1.0" encoding="utf-8"?>
<svg version="1.1" id="Layer_1" xmlns="http://www.w3.org/2000/svg" xmlns:xlink="http://www.w3.org/1999/xlink" x="0px" y="0px"
	 viewBox="0 0 655.2 627.7" style="enable-background:new 0 0 655.2 627.7;" xml:space="preserve">
<style type="text/css">
	.st0{fill:#F6C62A;}
</style>
<path class="st0" d="M634.9,445.6c-47.3-6-95,0.3-141.8,7.5c-60.9,10-120.9,25-180,42.3c0.9-1.5,3-1.8,4.4-2.8
	c29.2-13.7,60.1-23.4,90.8-33.2c34.1-9.6,68.1-20,103.3-24.8c8.4-1.8,17.2-2.9,24.6-7.4c4-1.7,6.7-7.6,2.8-10.8
	c-13.7-2.9-27.8-3.4-41.8-3.2c-33.7,1-67.3,4.2-100.7,9.6c-27.3,4.6-54.9,9.6-80.6,20.2c-13.3,6.3-26.1,13.9-40.4,17.6
	c-7.5,2.1-16.7,3.5-23.4-1.3c-6.7-5.2-3.6-14.7,0.6-20.5c6.4-11.3,18.9-16.5,28.4-24.6c34.8-25.3,68.4-52.9,95.6-86.4
	c15.6-18.3,22.6-41.8,28.5-64.6c15.7-64.1,24.6-129.6,32.7-195.1c1.5-11.7,1.9-23.6,5.1-35c0.3-8.8,1.4-19.7-5.1-26.7
	c-5.2-7.1-14.7-7.1-22.4-5.8c-7.6,1.4-14.6,6.7-16.4,14.6c-2.4,6.8,0.1,14.1,1,21c-0.8,6.4-1,13.1-4,19
	c-4.2,9.9-14.5,14.8-21.2,22.8c-12.5,11.5-22.2,25.5-31.5,39.5c-15,23.6-27.7,48.5-39.1,73.9c-36,80.5-62.7,164.8-86.4,249.6
	c-15.8,7.3-35.3,9.4-50.8,0.2c-2-8,4.5-13.8,10.7-17.2c7.8-7.3,17.6-16.6,15-28.5c-4.8-9.5-18.2-13.1-27.4-8
	c-12,9.4-15.4,25.3-17.5,39.6c-2.4,3.6-5.4,6.9-6.8,11.1c-7.8,18.7-2,39.2-3.2,58.7c-1.6,1.8-3.4,3.6-5.8,4.2
	c-11.7,0.2-23.3-0.1-35,0.1c-7.6-0.2-16,4.2-17.9,12c-1,8.6,4,17.4,11.9,20.9c13.6,6.4,28.6,9,43.1,12.3
	c-34,18.9-69.8,34.5-105.2,50.7c-8,3.8-16.9,5.4-24.1,11c-2.7,1.4-3.6,4.6-4.9,7.2c-1.5,7.8,6.9,12.7,13.7,12.4
	c10.7-0.2,21.3-2.5,31-6.8c100.1-40.8,201.5-78.5,305.3-108.5c65.3-18.8,131.6-35.2,199-43.9c26.5-2.8,53.5-5.6,79.9-1.2
	c9.2,0.4,22.1,0.2,26-10C653.5,448.3,642.3,446.9,634.9,445.6z M373.1,138.3c0.5,0,1.5-0.1,2-0.2c0.1,46.7,0.1,93.3,0,140
	c-12.7,14.1-26.9,27.1-40.2,40.8c-13.7,11-26.1,24.8-43,30.9c-3.4,1.3-7,1.6-10.5,1.3c-3.1-3.9-1.5-9.4-1.1-13.8
	c3.7-18.7,11-36.3,18-54c8.1-20.6,17-40.8,26-60.9c11.9-25.4,23.5-51.2,39.6-74.4C366.8,144.7,369.1,140.5,373.1,138.3z M169,513.2
	c20.7-9.7,42.8-17.5,65.5-21.5c8.3-3.5,4.7,0.7,2.3,1.2c-16.2,6.2-32.1,13.2-48.7,18.4C182,513.2,175.4,513.5,169,513.2z
	 M180.5,460.7c13.6-1,27.2-0.3,40.8-0.4c-12.2,8.9-26.5,14.2-40.5,19.5c-8,3.4-13.5-5.7-12.5-12.4
	C171.4,463.9,175.7,461.2,180.5,460.7z"/>
</svg>
