<svg width="117" height="96" viewBox="0 0 117 96" fill="none" xmlns="http://www.w3.org/2000/svg">
<g clip-path="url(#clip0)">
<path d="M80.5687 21.0009C80.3761 21.0009 79.8205 21.0009 79.7249 21.0009H47.873C47.2905 21.0009 46.8184 21.4731 46.8184 22.0555C46.8184 22.6379 47.2905 23.1102 47.873 23.1102H76.7975C76.3805 23.7855 76.1392 24.5801 76.1392 25.4304V39.2449C76.1392 39.8273 76.6114 40.2996 77.1939 40.2996C77.7764 40.2996 78.2486 39.8273 78.2486 39.2449V35.977H83.9437C84.5262 35.977 84.9983 35.5047 84.9983 34.9223V25.4304C84.9982 22.988 83.0112 21.0009 80.5687 21.0009ZM82.889 33.8676H78.2485V25.4304C78.2485 24.151 79.2893 23.1102 80.5687 23.1102C81.848 23.1102 82.8889 24.1511 82.8889 25.4304V33.8676H82.889Z" fill="#FAFAFA"/>
<path d="M83.8474 63.9811L76.9581 57.0919C77.7532 55.4704 78.2004 53.6488 78.2004 51.7246C78.2004 44.9787 72.7122 39.4906 65.9664 39.4906C59.2206 39.4906 53.7325 44.9787 53.7325 51.7246C53.7325 53.2668 54.0201 54.7431 54.5433 56.1034L53.3088 57.3379L48.2312 52.2602C48.0334 52.0625 47.7651 51.9513 47.4854 51.9513C47.2057 51.9513 46.9374 52.0625 46.7397 52.2602L45.5526 53.4473V43.8167C45.5526 43.2343 45.0804 42.762 44.4979 42.762C43.9154 42.762 43.4432 43.2343 43.4432 43.8167V55.5567L33.9073 65.0927C33.4954 65.5046 33.4954 66.1724 33.9073 66.5844C34.1133 66.7902 34.3832 66.8933 34.653 66.8933C34.9229 66.8933 35.1929 66.7902 35.3988 66.5844L43.4432 58.5399V66.1404H38.8035C38.221 66.1404 37.7488 66.6127 37.7488 67.1951V70.57C37.7488 73.0125 39.7358 74.9996 42.1783 74.9996H73.8188C76.2613 74.9996 78.2485 73.0125 78.2485 70.5698V69.6644C78.9863 70.3806 79.9589 70.7744 80.9977 70.7744C81.0042 70.7744 81.0109 70.7743 81.0175 70.7743C82.0798 70.7691 83.0777 70.3534 83.8275 69.6035C85.383 68.0477 85.392 65.5257 83.8474 63.9811ZM65.9663 41.5999C71.5491 41.5999 76.091 46.1418 76.091 51.7246C76.091 57.3073 71.5491 61.8492 65.9663 61.8492C62.1327 61.8492 58.7901 59.7076 57.0718 56.558L63.1668 50.4629V52.8557C63.1668 53.4381 63.639 53.9104 64.2215 53.9104C64.804 53.9104 65.2762 53.4381 65.2762 52.8557V47.794C65.2762 47.2117 64.804 46.7394 64.2215 46.7394H59.1598C58.5773 46.7394 58.1051 47.2117 58.1051 47.794C58.1051 48.3764 58.5773 48.8487 59.1598 48.8487H61.7981L56.211 54.4358C55.9707 53.5726 55.8417 52.6634 55.8417 51.7247C55.8416 46.1417 60.3835 41.5999 65.9663 41.5999ZM42.1782 72.8899C40.8988 72.8898 39.858 71.8489 39.858 70.5696V68.2494H69.389V69.515C69.389 69.5495 69.3909 69.5836 69.3941 69.6172C69.3909 69.6509 69.389 69.6849 69.389 69.7194V70.5696C69.389 71.42 69.6303 72.2147 70.0474 72.89H42.1782V72.8899ZM76.1391 70.5693C76.1391 71.8489 75.0981 72.8898 73.8188 72.8898C72.5392 72.8898 71.4983 71.8488 71.4983 70.5694V69.7192C71.4983 69.6847 71.4964 69.6507 71.4932 69.617C71.4964 69.5834 71.4983 69.5493 71.4983 69.5148V67.1946C71.4983 66.6122 71.0262 66.1399 70.4437 66.1399H45.5526V56.4301L47.4853 54.4974L52.5629 59.5751C52.7607 59.7729 53.029 59.884 53.3087 59.884C53.5884 59.884 53.8567 59.7729 54.0544 59.5751L55.5291 58.1005C57.6817 61.6113 61.555 63.9584 65.9663 63.9584C67.8813 63.9584 69.6948 63.5156 71.3103 62.7278L76.1391 67.5566V70.5693ZM82.336 68.1115C81.9818 68.4657 81.5099 68.6622 81.0072 68.6645C81.0041 68.6646 81.001 68.6646 80.9978 68.6646C80.5025 68.6646 80.0408 68.4754 79.6969 68.1314L73.1709 61.6054C74.1882 60.8616 75.0867 59.9648 75.8326 58.9492L82.3558 65.4724C83.078 66.1947 83.0691 67.3786 82.336 68.1115Z" fill="#FAFAFA"/>
<path d="M72.6439 50.6699C72.0613 50.6699 71.5892 51.1422 71.5892 51.7246C71.5892 54.825 69.0668 57.3474 65.9663 57.3474C65.3838 57.3474 64.9116 57.8195 64.9116 58.402C64.9116 58.9844 65.3838 59.4567 65.9663 59.4567C70.2299 59.4567 73.6985 55.9881 73.6985 51.7246C73.6985 51.1422 73.2264 50.6699 72.6439 50.6699Z" fill="#FAFAFA"/>
<path d="M58.0124 39.1409H57.0498V32.0747C57.0498 31.4923 56.5776 31.02 55.9951 31.02H51.1518C50.5693 31.02 50.0971 31.4923 50.0971 32.0747V39.1409H48.4016V27.7506C48.4016 27.1682 47.9294 26.6959 47.3469 26.6959H42.7064C42.1239 26.6959 41.6517 27.1682 41.6517 27.7506V39.1408H39.9645V34.5003C39.9645 33.9179 39.4923 33.4456 38.9098 33.4456H34.2694C33.6869 33.4456 33.2147 33.9179 33.2147 34.5003V39.1408H32.0547C31.4722 39.1408 31 39.6131 31 40.1955C31 40.7779 31.4722 41.2502 32.0547 41.2502H58.0126C58.5951 41.2502 59.0672 40.7779 59.0672 40.1955C59.0671 39.6131 58.5949 39.1409 58.0124 39.1409ZM37.8553 39.1409H35.3241V35.5551H37.8553V39.1409ZM46.2924 39.1409H43.7613V28.8053H46.2924V39.1409ZM54.9406 39.1409H52.2066V33.1294H54.9406V39.1409Z" fill="#FAFAFA"/>
<path d="M66.5906 26.6959H58.4211C57.8386 26.6959 57.3665 27.1682 57.3665 27.7506C57.3665 28.333 57.8386 28.8053 58.4211 28.8053H66.5906C67.1731 28.8053 67.6453 28.333 67.6453 27.7506C67.6452 27.1682 67.1731 26.6959 66.5906 26.6959Z" fill="#FAFAFA"/>
<path d="M72.5533 27.0049C72.3571 26.8087 72.085 26.6959 71.8076 26.6959C71.5302 26.6959 71.2581 26.8086 71.062 27.0049C70.8658 27.2012 70.7529 27.4732 70.7529 27.7505C70.7529 28.0279 70.8658 28.3 71.062 28.4961C71.2581 28.6923 71.5302 28.8052 71.8076 28.8052C72.085 28.8052 72.3571 28.6924 72.5533 28.4961C72.7495 28.3 72.8623 28.0279 72.8623 27.7505C72.8623 27.4733 72.7495 27.2012 72.5533 27.0049Z" fill="#FAFAFA"/>
<path d="M62.5057 31.3365H60.7764C60.1939 31.3365 59.7217 31.8088 59.7217 32.3912C59.7217 32.9736 60.1939 33.4459 60.7764 33.4459H62.5057C63.0882 33.4459 63.5604 32.9736 63.5604 32.3912C63.5604 31.8088 63.0882 31.3365 62.5057 31.3365Z" fill="#FAFAFA"/>
<path d="M71.8075 31.3365H66.5906C66.0081 31.3365 65.5359 31.8088 65.5359 32.3912C65.5359 32.9736 66.0081 33.4459 66.5906 33.4459H71.8075C72.39 33.4459 72.8622 32.9736 72.8622 32.3912C72.8622 31.8088 72.39 31.3365 71.8075 31.3365Z" fill="#FAFAFA"/>
<path d="M32.8013 67.6904C32.6052 67.4942 32.333 67.3812 32.0557 67.3812C31.7772 67.3812 31.5062 67.4941 31.31 67.6904C31.1128 67.8864 31.001 68.1585 31.001 68.4359C31.001 68.7133 31.1128 68.9854 31.31 69.1816C31.5062 69.3777 31.7772 69.4906 32.0557 69.4906C32.333 69.4906 32.6041 69.3779 32.8013 69.1816C32.9975 68.9854 33.1104 68.7133 33.1104 68.4359C33.1104 68.1584 32.9975 67.8863 32.8013 67.6904Z" fill="#FAFAFA"/>
</g>
<defs>
<clipPath id="clip0">
<rect x="31" y="21" width="54" height="54" fill="white"/>
</clipPath>
</defs>
</svg>
