<svg width="54" height="54" viewBox="0 0 54 54" fill="none" xmlns="http://www.w3.org/2000/svg">
<g clip-path="url(#clip0)">
<path d="M49.5686 0.000854492C49.376 0.000854492 48.8204 0.000854492 48.7249 0.000854492H16.873C16.2905 0.000854492 15.8183 0.473144 15.8183 1.05554C15.8183 1.63794 16.2905 2.11023 16.873 2.11023H45.7975C45.3804 2.78555 45.1391 3.58015 45.1391 4.43044V18.2449C45.1391 18.8273 45.6113 19.2996 46.1938 19.2996C46.7763 19.2996 47.2485 18.8273 47.2485 18.2449V14.977H52.9436C53.5261 14.977 53.9983 14.5047 53.9983 13.9223V4.43044C53.9982 1.98799 52.0112 0.000854492 49.5686 0.000854492ZM51.8889 12.8676H47.2484V4.43044C47.2484 3.151 48.2893 2.11023 49.5686 2.11023C50.8479 2.11023 51.8888 3.1511 51.8888 4.43044V12.8676H51.8889Z" fill="#FAFAFA"/>
<path d="M52.8474 42.981L45.9582 36.0918C46.7532 34.4704 47.2004 32.6488 47.2004 30.7245C47.2004 23.9786 41.7122 18.4906 34.9665 18.4906C28.2207 18.4906 22.7325 23.9786 22.7325 30.7245C22.7325 32.2668 23.0201 33.743 23.5434 35.1034L22.3088 36.3379L17.2313 31.2602C17.0335 31.0624 16.7652 30.9513 16.4855 30.9513C16.2058 30.9513 15.9375 31.0624 15.7397 31.2602L14.5527 32.4473V22.8167C14.5527 22.2343 14.0805 21.762 13.498 21.762C12.9155 21.762 12.4433 22.2343 12.4433 22.8167V34.5566L2.90734 44.0927C2.49549 44.5045 2.49549 45.1724 2.90734 45.5843C3.11332 45.7902 3.38322 45.8932 3.65311 45.8932C3.92301 45.8932 4.19301 45.7902 4.39888 45.5843L12.4433 37.5399V45.1404H7.80352C7.22101 45.1404 6.74883 45.6127 6.74883 46.1951V49.57C6.74883 52.0124 8.73586 53.9996 11.1784 53.9996H42.8188C45.2614 53.9996 47.2485 52.0124 47.2485 49.5698V48.6643C47.9864 49.3806 48.959 49.7744 49.9978 49.7744C50.0043 49.7744 50.0109 49.7743 50.0176 49.7743C51.0799 49.7691 52.0777 49.3534 52.8276 48.6035C54.383 47.0477 54.392 44.5256 52.8474 42.981ZM34.9664 20.5998C40.5491 20.5998 45.091 25.1417 45.091 30.7245C45.091 36.3073 40.5491 40.8492 34.9664 40.8492C31.1328 40.8492 27.7902 38.7076 26.0719 35.5579L32.1669 29.4629V31.8557C32.1669 32.4381 32.6391 32.9104 33.2216 32.9104C33.8041 32.9104 34.2763 32.4381 34.2763 31.8557V26.794C34.2763 26.2116 33.8041 25.7393 33.2216 25.7393H28.1598C27.5773 25.7393 27.1051 26.2116 27.1051 26.794C27.1051 27.3764 27.5773 27.8487 28.1598 27.8487H30.7981L25.211 33.4358C24.9708 32.5725 24.8418 31.6634 24.8418 30.7246C24.8417 25.1416 29.3836 20.5998 34.9664 20.5998ZM11.1783 51.8899C9.89886 51.8898 8.8581 50.8489 8.8581 49.5696V47.2494H38.389V48.515C38.389 48.5495 38.3909 48.5835 38.3942 48.6172C38.3909 48.6508 38.389 48.6849 38.389 48.7194V49.5696C38.389 50.42 38.6303 51.2147 39.0475 51.89H11.1783V51.8899ZM45.1391 49.5693C45.1391 50.8489 44.0982 51.8898 42.8188 51.8898C41.5393 51.8898 40.4984 50.8488 40.4984 49.5694V48.7192C40.4984 48.6847 40.4965 48.6506 40.4932 48.617C40.4965 48.5833 40.4984 48.5493 40.4984 48.5148V46.1946C40.4984 45.6122 40.0262 45.1399 39.4437 45.1399H14.5527V35.4301L16.4854 33.4974L21.563 38.5751C21.7607 38.7728 22.029 38.884 22.3087 38.884C22.5884 38.884 22.8568 38.7728 23.0545 38.5751L24.5292 37.1004C26.6818 40.6113 30.555 42.9584 34.9664 42.9584C36.8814 42.9584 38.6949 42.5156 40.3104 41.7278L45.1391 46.5565V49.5693ZM51.3361 47.1115C50.9819 47.4657 50.5099 47.6622 50.0073 47.6645C50.0042 47.6646 50.001 47.6646 49.9979 47.6646C49.5026 47.6646 49.0408 47.4754 48.6969 47.1313L42.1709 40.6054C43.1883 39.8616 44.0868 38.9648 44.8326 37.9491L51.3559 44.4724C52.078 45.1946 52.0692 46.3786 51.3361 47.1115Z" fill="#FAFAFA"/>
<path d="M41.6439 29.67C41.0614 29.67 40.5892 30.1422 40.5892 30.7246C40.5892 33.825 38.0668 36.3474 34.9664 36.3474C34.3839 36.3474 33.9117 36.8196 33.9117 37.4021C33.9117 37.9845 34.3839 38.4568 34.9664 38.4568C39.2299 38.4568 42.6986 34.9881 42.6986 30.7246C42.6986 30.1422 42.2264 29.67 41.6439 29.67Z" fill="#FAFAFA"/>
<path d="M27.0124 18.141H26.0498V11.0748C26.0498 10.4924 25.5776 10.0201 24.9951 10.0201H20.1518C19.5693 10.0201 19.0971 10.4924 19.0971 11.0748V18.141H17.4016V6.75064C17.4016 6.16824 16.9294 5.69595 16.3469 5.69595H11.7064C11.1239 5.69595 10.6517 6.16824 10.6517 6.75064V18.1408H8.96453V13.5003C8.96453 12.9179 8.49234 12.4456 7.90984 12.4456H3.26943C2.68692 12.4456 2.21474 12.9179 2.21474 13.5003V18.1408H1.05469C0.472184 18.1408 0 18.6131 0 19.1955C0 19.7779 0.472184 20.2502 1.05469 20.2502H27.0126C27.5951 20.2502 28.0672 19.7779 28.0672 19.1955C28.0671 18.6131 27.5949 18.141 27.0124 18.141ZM6.85526 18.141H4.32411V14.5551H6.85526V18.141ZM15.2924 18.141H12.7613V7.80533H15.2924V18.141ZM23.9406 18.141H21.2066V12.1294H23.9406V18.141Z" fill="#FAFAFA"/>
<path d="M35.5905 5.69595H27.421C26.8385 5.69595 26.3663 6.16824 26.3663 6.75064C26.3663 7.33304 26.8385 7.80532 27.421 7.80532H35.5905C36.173 7.80532 36.6452 7.33304 36.6452 6.75064C36.6451 6.16824 36.173 5.69595 35.5905 5.69595Z" fill="#FAFAFA"/>
<path d="M41.5533 6.00485C41.3572 5.80868 41.0851 5.69583 40.8077 5.69583C40.5303 5.69583 40.2582 5.80858 40.062 6.00485C39.8658 6.20113 39.753 6.47313 39.753 6.75052C39.753 7.0279 39.8658 7.30001 40.062 7.49607C40.2582 7.69225 40.5303 7.8052 40.8077 7.8052C41.0851 7.8052 41.3572 7.69235 41.5533 7.49607C41.7495 7.30001 41.8624 7.0279 41.8624 6.75052C41.8624 6.47324 41.7495 6.20113 41.5533 6.00485Z" fill="#FAFAFA"/>
<path d="M31.5057 10.3365H29.7764C29.1939 10.3365 28.7217 10.8087 28.7217 11.3911C28.7217 11.9735 29.1939 12.4458 29.7764 12.4458H31.5057C32.0882 12.4458 32.5604 11.9735 32.5604 11.3911C32.5604 10.8087 32.0882 10.3365 31.5057 10.3365Z" fill="#FAFAFA"/>
<path d="M40.8074 10.3365H35.5905C35.008 10.3365 34.5358 10.8087 34.5358 11.3911C34.5358 11.9735 35.008 12.4458 35.5905 12.4458H40.8074C41.3899 12.4458 41.8621 11.9735 41.8621 11.3911C41.8621 10.8087 41.3899 10.3365 40.8074 10.3365Z" fill="#FAFAFA"/>
<path d="M1.80133 46.6904C1.60516 46.4942 1.33305 46.3813 1.05566 46.3813C0.777227 46.3813 0.506172 46.4941 0.31 46.6904C0.112773 46.8865 0.000976562 47.1586 0.000976562 47.4359C0.000976562 47.7133 0.112773 47.9854 0.31 48.1816C0.506172 48.3778 0.777227 48.4906 1.05566 48.4906C1.33305 48.4906 1.6041 48.3779 1.80133 48.1816C1.9975 47.9854 2.11035 47.7133 2.11035 47.4359C2.11035 47.1585 1.9975 46.8863 1.80133 46.6904Z" fill="#FAFAFA"/>
</g>
<defs>
<clipPath id="clip0">
<rect width="54" height="54" fill="white"/>
</clipPath>
</defs>
</svg>
