<svg width="512" height="512" viewBox="0 0 512 512" fill="none" xmlns="http://www.w3.org/2000/svg">
<path d="M502.063 111.68C495.655 105.272 487.136 101.743 478.063 101.743C459.356 101.743 444.139 116.962 444.139 135.667V258.371C438.823 259.676 433.789 262.199 429.532 265.896L359.835 326.431C330.066 352.286 312.993 389.728 312.993 429.156V485.994C312.993 491.516 317.47 495.994 322.993 495.994C328.516 495.994 332.993 491.516 332.993 485.994V429.156C332.993 395.523 347.556 363.585 372.949 341.531L442.645 280.996C446.993 277.221 453.218 276.254 458.504 278.537C462.73 280.36 465.852 283.953 467.068 288.391C468.285 292.83 467.432 297.512 464.727 301.236L406.047 382.025C402.801 386.494 403.793 392.748 408.261 395.993C412.73 399.238 418.984 398.247 422.229 393.779L480.909 312.99C487.203 304.325 489.189 293.432 486.357 283.105C483.525 272.776 476.262 264.418 466.429 260.174C465.673 259.848 464.908 259.551 464.137 259.282V135.667C464.137 127.989 470.384 121.742 478.074 121.742C481.794 121.742 485.291 123.191 487.921 125.821C490.551 128.451 492 131.949 492 135.669L491.999 167C491.999 172.523 496.476 177 501.999 177C507.521 177 511.999 172.523 511.999 167L512 135.669C511.999 126.607 508.471 118.088 502.063 111.68Z" fill="black"/>
<path d="M501.993 229.999C496.47 229.999 491.993 234.476 491.993 239.999L491.987 345.382C491.986 367.13 485.976 388.424 474.609 406.963L429.354 480.768C426.467 485.476 427.943 491.633 432.651 494.521C434.282 495.521 436.087 495.997 437.869 495.997C441.233 495.997 444.517 494.301 446.404 491.224L491.659 417.419C504.956 395.731 511.986 370.823 511.988 345.385L511.994 240C511.993 234.476 507.516 229.999 501.993 229.999Z" fill="black"/>
<path d="M509.06 193.748C507.21 191.878 504.63 190.818 502 190.818C499.36 190.818 496.78 191.878 494.92 193.748C493.06 195.608 491.99 198.178 491.99 200.818C491.99 203.448 493.06 206.028 494.92 207.888C496.78 209.748 499.36 210.818 502 210.818C504.63 210.818 507.2 209.748 509.06 207.888C510.93 206.028 512 203.448 512 200.818C512 198.178 510.93 195.608 509.06 193.748Z" fill="black"/>
<path d="M152.164 326.431L82.467 265.896C78.21 262.199 73.176 259.676 67.861 258.37V135.667C67.861 116.96 52.642 101.743 33.925 101.743C24.863 101.743 16.343 105.272 9.936 111.68C3.528 118.087 0 126.607 0 135.668L0.011 345.381C0.012 370.819 7.042 395.728 20.34 417.416L65.594 491.221C67.481 494.298 70.765 495.995 74.128 495.994C75.91 495.994 77.715 495.517 79.346 494.518C84.054 491.63 85.531 485.473 82.643 480.765L37.389 406.961C26.021 388.421 20.012 367.127 20.011 345.38L20 135.667C20 131.947 21.448 128.45 24.079 125.82C26.709 123.19 30.206 121.741 33.937 121.741C41.615 121.741 47.862 127.988 47.862 135.666V259.28C47.091 259.55 46.326 259.846 45.57 260.172C35.737 264.416 28.474 272.774 25.642 283.102C22.81 293.43 24.796 304.324 31.09 312.988L89.771 393.777C93.017 398.246 99.271 399.237 103.739 395.991C108.207 392.746 109.198 386.492 105.953 382.023L47.272 301.234C44.567 297.51 43.714 292.829 44.931 288.389C46.148 283.951 49.27 280.358 53.496 278.535C58.782 276.252 65.007 277.218 69.354 280.994L139.051 341.529C164.444 363.584 179.007 395.521 179.007 429.154V485.992C179.007 491.514 183.484 495.992 189.007 495.992C194.53 495.992 199.007 491.514 199.007 485.992V429.154C199.004 389.728 181.931 352.286 152.164 326.431Z" fill="black"/>
<path d="M127.068 413.925C125.208 412.065 122.628 410.995 119.998 410.995C117.368 410.995 114.788 412.064 112.928 413.925C111.068 415.785 109.998 418.365 109.998 420.995C109.998 423.625 111.068 426.205 112.928 428.064C114.788 429.924 117.368 430.995 119.998 430.995C122.628 430.995 125.208 429.925 127.068 428.064C128.928 426.205 129.998 423.625 129.998 420.995C129.997 418.365 128.927 415.785 127.068 413.925Z" fill="black"/>
<path d="M367.877 94.6071C376.006 85.9126 380.7 74.4437 380.7 62.2C380.7 35.8979 359.305 14.5 333 14.5C324.308 14.5 315.759 16.8892 308.268 21.408L308.267 21.4087C305.133 23.3029 304.122 27.3761 306.013 30.515C307.907 33.6573 311.987 34.6538 315.12 32.771L315.122 32.7698C320.55 29.4955 326.729 27.7669 333 27.7669C351.983 27.7669 367.433 43.2148 367.433 62.2C367.433 73.8927 361.58 84.6661 351.75 91.0419L351.743 91.0462C343.5 96.4538 333.033 98.0188 323.476 95.2969C319.983 94.2927 316.286 96.3269 315.276 99.8498L315.275 99.8521C314.271 103.376 316.311 107.045 319.835 108.052C324.119 109.278 328.549 109.899 333 109.899C341.109 109.899 348.946 107.75 355.934 103.869C381.337 113.373 398.233 137.514 398.233 164.866V189.033H354.264C350.242 155.473 329.285 126.121 298.775 111.516C308.195 101.209 313.966 87.5047 313.966 72.4669C313.967 40.5022 287.964 14.5 256 14.5C224.036 14.5 198.033 40.5022 198.033 72.4669C198.033 87.5103 203.808 101.219 213.234 111.528C203.211 116.338 193.916 122.853 185.958 130.765L185.954 130.77C170.068 146.701 160.272 167.066 157.683 189.034H113.767V164.867C113.767 147.491 120.551 131.112 132.858 118.751C139.463 112.188 147.477 107.138 156.116 103.898C163.104 107.762 170.916 109.9 179 109.9C183.451 109.9 187.881 109.279 192.165 108.053C195.688 107.045 197.729 103.376 196.725 99.853L196.724 99.8503C195.713 96.3253 192.014 94.2955 188.523 95.2979C178.972 98.0237 168.511 96.462 160.232 91.0339L160.226 91.0301C150.421 84.6666 144.567 73.8939 144.567 62.2C144.567 43.2148 160.017 27.7669 179 27.7669C185.271 27.7669 191.45 29.4955 196.878 32.7698L196.883 32.7724C200.027 34.655 204.087 33.6455 205.984 30.519L205.986 30.5152C207.878 27.3768 206.867 23.3028 203.733 21.4087L203.732 21.408C196.241 16.8892 187.692 14.5 179 14.5C152.695 14.5 131.3 35.8979 131.3 62.2C131.3 74.4359 135.988 85.8974 144.096 94.5847C136.527 98.3526 129.531 103.353 123.482 109.361L123.476 109.367C108.664 124.244 100.5 143.957 100.5 164.867V195.667C100.5 199.33 103.467 202.3 107.133 202.3H156.966V241.867C156.966 245.53 159.934 248.5 163.599 248.5H348.399C352.066 248.5 355.033 245.529 355.033 241.867V202.3H404.866C408.532 202.3 411.499 199.329 411.499 195.667V164.867C411.5 134.645 394.343 107.679 367.877 94.6071ZM211.3 72.4669C211.3 47.8215 231.352 27.7669 256 27.7669C280.648 27.7669 300.7 47.8215 300.7 72.4669C300.7 97.1123 280.648 117.167 256 117.167C231.352 117.167 211.3 97.1117 211.3 72.4669ZM170.233 235.233V200.8C170.233 177.924 179.147 156.386 195.329 140.154C203.665 131.863 213.739 125.387 224.551 121.125C233.616 127.003 244.413 130.433 256 130.433C267.606 130.433 278.422 126.993 287.496 121.097C320.075 133.95 341.767 165.54 341.767 200.8V235.233H170.233Z" fill="black" stroke="#000001" stroke-width="3"/>
</svg>
