<svg width="117" height="96" viewBox="0 0 117 96" fill="none" xmlns="http://www.w3.org/2000/svg">
<path d="M36.3153 24.5595H36.2703C35.6879 24.5595 35.2156 25.0317 35.2156 25.6142C35.2156 26.1967 35.6879 26.6689 36.2703 26.6689H36.3153C36.8977 26.6689 37.37 26.1967 37.37 25.6142C37.37 25.0317 36.8977 24.5595 36.3153 24.5595Z" fill="#FAFAFA"/>
<path d="M59.3604 39.6719C59.9374 39.6719 60.37 39.1816 60.37 38.6142C60.37 38.0468 59.8652 37.5471 59.2703 37.5595C58.6879 37.5717 58.2174 38.0317 58.2156 38.6142C58.2137 39.2229 58.7517 39.6719 59.3604 39.6719Z" fill="#FAFAFA"/>
<path fill-rule="evenodd" clip-rule="evenodd" d="M59.3604 39.6719C59.9374 39.6719 60.37 39.1816 60.37 38.6142C60.37 38.0468 59.8652 37.5471 59.2703 37.5595C58.6879 37.5717 58.2174 38.0317 58.2156 38.6142C58.2137 39.2229 58.7517 39.6719 59.3604 39.6719Z" fill="#FAFAFA"/>
<path d="M81.3153 24.5595H81.2703C80.6879 24.5595 80.2156 25.0317 80.2156 25.6142C80.2156 26.1967 80.6879 26.6689 81.2703 26.6689H81.3153C81.8977 26.6689 82.37 26.1967 82.37 25.6142C82.37 25.0317 81.8977 24.5595 81.3153 24.5595Z" fill="#FAFAFA"/>
<path fill-rule="evenodd" clip-rule="evenodd" d="M59.3604 39.6719C59.9374 39.6719 60.37 39.1816 60.37 38.6142C60.37 38.0468 59.8652 37.5471 59.2703 37.5595C58.6879 37.5717 58.2174 38.0317 58.2156 38.6142C58.2137 39.2229 58.7517 39.6719 59.3604 39.6719Z" fill="#FAFAFA"/>
<path fill-rule="evenodd" clip-rule="evenodd" d="M83.4148 56.1883H80.3803C79.8894 56.1883 79.4827 55.8738 79.3592 55.3987C76.2974 54.9382 73.534 52.877 72.22 50.0734C72.227 50.1709 72.2339 50.5414 72.2427 51.0087C72.2624 52.0615 72.2913 53.6055 72.3509 53.625C73.0316 53.8472 73.4845 54.3754 73.7406 55.1336C73.7406 55.1336 74.7499 56.1883 75.4999 56.5C75.2013 56.628 73.9999 57 73.9999 57C73.9999 57.6103 73.9812 58.1294 73.9439 58.5708L75.4948 58C75.4708 61.903 75.4999 65.5 75.4999 68C75.4999 68.8732 77.4999 68.9763 77.4999 68C77.4999 66.5 77.2925 63.6638 77.2925 63.6638L81.2233 60.7514L84.6967 63.5558C84.6967 63.5558 84.6967 66.375 84.4695 68C84.3673 68.7308 86.4999 69 86.4999 68C86.4999 65.5312 87.1519 57.7393 87.1519 57.7393L93.4164 60.1591C93.4164 60.1591 90.9999 66.5 90.4999 68C90.2529 68.741 92.2237 69.3284 92.4999 68.5C92.9999 67 95.3846 60.9194 95.3846 60.9194L102.34 63.6063L102.36 63.6135C103.832 64.15 105 67.5 105.5 68.5C105.86 69.2201 107.5 69 107.5 68.5C107.5 66.6537 105.571 62.5425 103.091 61.635L87.9638 55.7917C90.6308 54.0795 92.5481 51.2975 93.1065 48.0566H93.8641C95.2956 48.0566 96.4602 46.892 96.4602 45.4605V42.8843C96.4602 41.4528 95.2956 40.2882 93.8641 40.2882H93.2742V37.906C93.4479 37.8918 93.618 37.8349 93.7682 37.7361C94.0645 37.541 94.2428 37.21 94.2428 36.8552V33.6338L102.843 29.2658V33.7025C101.949 34.1061 101.326 35.005 101.326 36.0473V42.1336C101.326 42.7161 101.798 43.1883 102.38 43.1883H105.415C105.997 43.1883 106.469 42.7161 106.469 42.1336V36.0473C106.469 35.005 105.846 34.1061 104.952 33.7025V27.6456C104.952 27.6263 104.95 27.6075 104.949 27.5884C104.95 27.5824 104.95 27.5764 104.951 27.5704C104.951 27.5627 104.952 27.555 104.952 27.5472C104.952 27.1501 104.729 26.7866 104.375 26.6068L81.7478 15.1143C81.4477 14.9619 81.0928 14.9619 80.7926 15.1143L58.7701 26.2995L59.3751 26.6068C59.7292 26.7866 59.9522 27.2485 59.9522 27.6456V28.2181L70.4069 33.5281V28.3017C71.6989 27.9288 74.5883 27.1786 77.9506 26.8419C78.5302 26.7839 78.953 26.267 78.895 25.6874C78.8369 25.1078 78.3199 24.6849 77.7405 24.7431C72.9488 25.2228 69.177 26.4667 69.0188 26.5195C68.5881 26.663 68.2975 27.0661 68.2975 27.5201V31.2678L60.9719 27.5471L81.2703 17.2376L101.569 27.5471L94.2429 31.2678V27.5201C94.2429 27.066 93.9524 26.663 93.5216 26.5195C93.3665 26.4678 89.6679 25.2477 84.9429 24.7575C84.3612 24.6979 83.8451 25.1184 83.785 25.6978C83.7248 26.2771 84.1458 26.7955 84.7251 26.8557C88.0293 27.1985 90.859 27.9338 92.1334 28.3017C92.1334 28.3017 92.3504 35.4515 92.1334 35.3638C88.7616 34 83.4229 35.8666 81.2832 37.6153C79.1436 35.8666 75.9191 34.7992 73.1587 34.9257L82.0451 39.4392C84.2875 37.7581 88.5958 35.8802 91.165 37.023C91.5997 37.2163 91.165 46.0956 91.165 46.0956C91.165 50.34 88.3388 53.9366 84.4695 55.1024V55.1336C84.4695 55.7161 83.9972 56.1883 83.4148 56.1883ZM93.8642 42.3974H93.2743V45.9471H93.8642C94.1326 45.9471 94.3509 45.7288 94.3509 45.4604V42.8842C94.3509 42.6158 94.1326 42.3974 93.8642 42.3974ZM103.898 35.5847C103.647 35.5847 103.435 35.7966 103.435 36.0473V41.0788H104.36V36.0473C104.36 35.7965 104.149 35.5847 103.898 35.5847ZM81.9136 58.5976L84.849 60.9677L85.0754 57.1223C84.0252 57.4386 82.9126 57.6093 81.7608 57.6093H80.7411C79.4035 57.6093 78.1186 57.3792 76.9234 56.9579L77.1523 61.1424L80.6232 58.5708C81.0094 58.2848 81.54 58.2958 81.9136 58.5976Z" fill="#FAFAFA"/>
<path fill-rule="evenodd" clip-rule="evenodd" d="M85.5186 80.8463L85.4823 80.4621C85.2926 77.8278 83.5706 75.5425 81.0912 74.635L65.9638 68.7917C67.4999 67.5 68.1575 66.9833 69.165 65.5C70.229 63.9335 70.9107 62.1932 71.1065 61.0566H71.8641C73.0627 61.0566 73.7515 60.8426 73.9439 58.5708C73.9812 58.1294 73.9999 57.6103 73.9999 57C73.9999 56.2856 73.9168 55.6552 73.7406 55.1336C73.4845 54.3754 73.0316 53.8472 72.3509 53.625C72.2913 53.6055 72.2624 52.0615 72.2427 51.0087C72.2339 50.5414 72.227 50.1709 72.22 50.0734C72.22 48.8153 72.2428 46.6338 72.2428 46.6338L80.8429 42.2658V46.7025C79.9493 47.1061 79.3256 48.005 79.3256 49.0473L79.3592 55.3987C79.4827 55.8738 79.8894 56.1883 80.3803 56.1883H83.4148C83.9972 56.1883 84.4695 55.7161 84.4695 55.1336V55.1024V49.0473C84.4695 48.005 83.8458 47.1061 82.9522 46.7025V40.6456C82.9522 40.6263 82.9503 40.6075 82.9494 40.5884C82.9499 40.5746 82.9522 40.5611 82.9522 40.5472C82.9522 40.1501 82.7293 39.7866 82.3751 39.6068L82.0451 39.4392L73.1587 34.9257L70.4069 33.5281L59.9522 28.2181C59.2412 28.0804 58.7649 28.1429 58.1134 28.4592C56.9999 29 47.2284 33.9878 47.2284 33.9878L45.3532 34.9402L36.1653 39.6067C36.0788 39.6507 36 39.7056 35.9305 39.7694C35.7156 39.9663 35.5882 40.2471 35.5882 40.5471C35.5882 40.9442 35.8113 41.3076 36.1653 41.4874L46.1537 46.5605L46.2976 46.6336V49.8665C46.2976 50.2217 46.4764 50.5531 46.7734 50.7481C46.9091 50.8373 47.0615 50.8909 47.2178 50.911L47.2275 50.9122V53.288H46.6376C46.2483 53.288 45.8788 53.3741 45.547 53.5283C44.9834 53.7903 44.5289 54.2486 44.272 54.815C44.124 55.1412 44.0415 55.8271 44.0415 56.208V58.4603L44.0415 58.4692C44.0463 59.8966 45.2091 61.0564 46.6376 61.0564H47.3952C47.4648 61.4605 47.5556 61.8575 47.6663 62.2461C47.9511 63.2459 48.3679 64.1905 48.8966 65.06C49.2955 65.7159 49.758 66.329 50.2756 66.8907C50.8952 67.5631 51.5936 68.1617 52.3561 68.6718L51.5325 69L37.4094 74.6275C34.9462 75.54 33.2342 77.8189 33.0432 80.4398L33.0046 80.8453C32.9765 81.141 33.0744 81.435 33.2743 81.6549C33.474 81.8747 33.7574 82 34.0545 82H84.4685C84.7654 82 85.0487 81.8748 85.2486 81.6552C85.4484 81.4356 85.5464 81.1419 85.5186 80.8463ZM71.8642 55.3974H71.2743V58.9471H71.8642C72.1326 58.9471 72.3509 58.7288 72.3509 58.4604V55.8842C72.3509 55.6158 72.1326 55.3974 71.8642 55.3974ZM81.8979 48.5847C81.647 48.5847 81.4352 48.7966 81.4352 49.0473C81.4352 49.0473 81.4999 53 81.4352 54.0788C81.4242 54.2613 81.6611 54.502 81.8979 54.5C82.1292 54.498 82.3604 54.2574 82.3604 54.0788V49.0473C82.3604 48.7965 82.1486 48.5847 81.8979 48.5847ZM46.6375 58.9472H47.2274V57.4386V55.3975H46.6375C46.3691 55.3975 46.1508 55.6158 46.1508 55.8842V57.0227V58.4604C46.1508 58.7288 46.3692 58.9471 46.6375 58.9472ZM46.2975 40.5201C46.2975 40.0661 46.5473 39.6182 47.0188 39.5195C47.7635 39.3636 48.5585 39.1701 49.393 38.9669C51.3386 38.4934 53.4994 37.9675 55.7405 37.7431C55.9499 37.722 56.1512 37.7638 56.3256 37.8532C56.6336 38.011 56.8579 38.3173 56.895 38.6874C56.9395 39.1322 56.7009 39.54 56.3256 39.7319C56.2118 39.7901 56.0854 39.8284 55.9506 39.8419C53.8078 40.0565 51.857 40.439 50.3894 40.7847C49.5542 40.9815 48.8755 41.1664 48.4069 41.3017V48.3714C49.472 48.0673 50.5742 47.9138 51.7 47.9138C54.4859 47.9138 57.1436 48.8666 59.2832 50.6153C61.2749 48.9876 66.0386 47.2576 69.4074 48.1261C69.6244 48.2138 69.4999 41 69.4999 41C68.2254 40.6321 66.0293 40.1985 62.7251 39.8557C62.1457 39.7955 61.7248 39.2771 61.7849 38.6978C61.8451 38.1184 62.3612 37.6979 62.9429 37.7575C66.8357 38.1614 70.4297 39.1863 71.5216 39.5195C71.9523 39.663 72.2429 40.066 72.2429 40.5201V44.2678L79.5687 40.5471L72.5084 36.9612L59.2702 30.2376L49.2428 35.3305L38.972 40.5471L46.2445 44.2409L46.2975 44.2678V40.5201ZM59.2833 53.0781C57.4293 51.2976 51.7616 49 49.3368 50.3075C48.9494 50.5163 49.1846 56.0648 49.292 58.2361C49.292 59.3553 49.5333 61.2891 49.8937 62.2855C50.5766 64.174 51.848 65.7832 53.4853 66.8907C53.9657 67.2157 54.4777 67.4975 55.0156 67.7304C56.1585 68.2255 57.9152 68.507 59.4999 68.5C64.3188 68.4788 68.186 64.4684 68.9326 61.1782C69.0847 60.5081 69.165 59.8111 69.165 59.0956C69.165 59.0956 69.1919 58.5455 69.2257 57.7161C69.3275 55.2134 69.4915 50.1682 69.165 50.023C66.2616 48.7315 61.1374 51.2977 59.2833 53.0781ZM38.1515 76.6021C36.6814 77.1431 35.5998 78.3929 35.2531 79.8906H46.744L44.634 74.0195L38.1776 76.5921L38.1515 76.6021ZM46.5948 73.2382L48.9855 79.8906H53.3694L52.8317 70.753L46.5948 73.2382ZM55.4823 79.8906H62.5003L62.6967 76.5558L59.2233 73.7514L55.2925 76.6638L55.4823 79.8906ZM59.9136 71.5976L62.849 73.9677L63.0754 70.1223C62.0252 70.4386 60.9126 70.6093 59.7608 70.6093H58.7411C57.4035 70.6093 56.1186 70.3792 54.9234 69.9579L55.1523 74.1424L58.6232 71.5708C59.0094 71.2848 59.5399 71.2958 59.9136 71.5976ZM65.1519 70.7393L64.6133 79.8906H68.9973L71.4163 73.1591L65.1519 70.7393ZM73.3846 73.9194L71.2387 79.8907H83.2681C82.9165 78.3948 81.8323 77.15 80.3596 76.6135L80.3405 76.6063L73.3846 73.9194Z" fill="#FAFAFA"/>
<path fill-rule="evenodd" clip-rule="evenodd" d="M59.3604 39.6719C59.9374 39.6719 60.37 39.1816 60.37 38.6142C60.37 38.0468 59.8652 37.5471 59.2703 37.5595C58.6879 37.5717 58.2174 38.0317 58.2156 38.6142C58.2137 39.2229 58.7517 39.6719 59.3604 39.6719Z" fill="#FAFAFA"/>
<path fill-rule="evenodd" clip-rule="evenodd" d="M46.2976 49.8665V46.6336L46.1537 46.5605C46.1455 46.7267 46.1331 46.8919 46.1164 47.0558C45.6339 51.7921 41.6222 55.5 36.7608 55.5H35.7411C30.5555 55.5 26.3368 51.2812 26.3368 46.0956C26.3368 46.0956 25.8548 37.5674 26.3368 37.3075C28.6234 36.0745 33.7938 38.0474 35.9305 39.7694C36 39.7056 36.0788 39.6507 36.1653 39.6067L45.3532 34.9402C42.1087 34.6044 38.0747 36.1512 36.2832 37.6153C34.1436 35.8666 31.4859 34.9138 28.7 34.9138C27.5743 34.9138 26.472 35.0673 25.4069 35.3714V28.3017C26.6989 27.9288 29.5883 27.1786 32.9506 26.8419C33.5302 26.7839 33.953 26.267 33.895 25.6874C33.8369 25.1078 33.3199 24.6849 32.7405 24.7431C27.9488 25.2228 24.177 26.4667 24.0188 26.5195C23.5881 26.663 23.2975 27.0661 23.2975 27.5201V31.2678L15.972 27.5471L36.2703 17.2376L56.5687 27.5471L49.2429 31.2678V27.5201C49.2429 27.066 48.9523 26.663 48.5216 26.5195C48.3665 26.4678 44.6679 25.2477 39.9429 24.7575C39.3612 24.6979 38.8451 25.1184 38.785 25.6978C38.7248 26.2771 39.1458 26.7955 39.7251 26.8557C43.0293 27.1985 45.8589 27.9338 47.1334 28.3017C47.1334 28.3017 47.2436 31.9326 47.2284 33.9878C47.2284 33.9878 56.9999 29 58.1134 28.4592C58.7649 28.1429 59.2412 28.0804 59.9522 28.2181V27.6456C59.9522 27.2485 59.7292 26.7866 59.3751 26.6068L58.7701 26.2995L36.7478 15.1143C36.4477 14.9619 36.0928 14.9619 35.7926 15.1143L13.1653 26.6067C12.8114 26.7865 12.5882 27.15 12.5882 27.5471C12.5882 27.9442 12.8113 28.3076 13.1653 28.4874L23.2976 33.6336V36.8665C23.2976 37.2217 23.4764 37.5531 23.7734 37.7481C23.912 37.8391 24.0678 37.8931 24.2275 37.9122V40.288H23.6376C22.2061 40.288 21.0415 41.4526 21.0415 42.8841V45.4603C21.0415 46.8918 22.2061 48.0564 23.6376 48.0564H24.3952C24.9409 51.2231 26.7841 53.9512 29.3562 55.6718L14.4094 61.6275C11.9672 62.5322 11.0162 64.9581 10.0677 67.3773L10.0432 67.4398C9.68647 68.3496 11.6444 68.7109 11.9999 68C12.4999 67 13.6814 64.1431 15.1515 63.6021L15.1776 63.5921L21.634 61.0195C21.634 61.0195 23.4999 67.5 23.9999 69C24.2469 69.7409 26.3999 69.5 25.9999 68.5C24.9999 66 23.5948 60.2382 23.5948 60.2382L29.8317 57.753C29.8317 57.753 30.4999 66 30.4999 68C30.4999 69.5 32.2925 69.3438 32.2925 68C32.2925 66.5 32.2925 63.6638 32.2925 63.6638L36.2233 60.7514L39.6967 63.5558C39.6967 63.5558 39.4999 66.5 39.4999 68C39.4999 68.8732 41.4999 68.8732 41.4999 68C41.4999 65 42.1519 57.7393 42.1519 57.7393L44.0415 58.4692L44.0415 58.4603V56.208L42.9638 55.7917C43.4232 55.4968 43.8602 55.1702 44.272 54.815C44.5289 54.2486 44.9834 53.7903 45.547 53.5283C46.2151 52.7396 46.7792 51.86 47.2178 50.911C47.0615 50.8909 46.9091 50.8373 46.7734 50.7481C46.4764 50.5531 46.2976 50.2217 46.2976 49.8665ZM23.6375 45.9472H24.2274V42.3975H23.6375C23.3691 42.3975 23.1508 42.6158 23.1508 42.8842V45.4604C23.1508 45.7288 23.3692 45.9471 23.6375 45.9472ZM36.9136 58.5976L39.849 60.9677L40.0754 57.1223C39.0252 57.4386 37.9126 57.6093 36.7608 57.6093H35.7411C34.4035 57.6093 33.1186 57.3792 31.9234 56.9579L32.1523 61.1424L35.6232 58.5708C36.0094 58.2848 36.5399 58.2958 36.9136 58.5976Z" fill="#FAFAFA"/>
</svg>
