<svg width="117" height="96" viewBox="0 0 117 96" fill="none" xmlns="http://www.w3.org/2000/svg">
<g clip-path="url(#clip0)">
<path d="M84.6875 71.757H85.6959V74.5367H38.6326C37.125 74.5367 36.3508 73.8076 35.9026 72.9873C31.9093 66.562 35.3728 61.9595 36.2285 61.0025C36.2693 60.957 36.2693 60.957 36.31 60.9114C36.3508 60.8658 36.3915 60.8203 36.4323 60.7747C36.9213 60.319 37.614 60 38.5919 60H85.6959V62.7797C85.6959 62.7797 85.3498 62.7797 84.6875 62.7797M84.6875 71.757H39.0809C39.0809 71.757 37.3287 71.9392 37.3287 69.5241C37.3287 69.0228 37.3287 68.5671 37.3287 68.157C37.3287 68.157 37.3287 67.4278 37.3287 66.3797C37.3287 65.9696 37.3287 65.5139 37.3287 65.0127C37.3287 62.5975 39.0809 62.7797 39.0809 62.7797C39.0809 62.7797 67.1455 62.7797 84.6875 62.7797M84.6875 71.757C84.6875 71.757 82.6875 67.2418 84.6875 62.7797" stroke="#FAFAFA" stroke-miterlimit="10"/>
<path d="M35.6988 48.2949H86.0185C86.2946 48.2949 86.5185 48.5188 86.5185 48.7949V59.0532C86.5185 59.3293 86.2946 59.5532 86.0185 59.5532H35.6988C35.4226 59.5532 35.1988 59.3293 35.1988 59.0532V48.7949C35.1988 48.5188 35.4226 48.2949 35.6988 48.2949Z" stroke="#FAFAFA" stroke-miterlimit="10"/>
<path d="M51.3237 50.8025H37.8771V57.5468H51.3237V50.8025Z" stroke="#FAFAFA" stroke-miterlimit="10"/>
<path d="M83.6875 45.0152H84.6959V47.7949H37.6326C36.125 47.7949 35.3508 47.0658 34.9026 46.2456C30.9093 39.8203 34.3728 35.2177 35.2285 34.2608C35.2693 34.2152 35.2693 34.2152 35.31 34.1696C35.3508 34.124 35.3915 34.0785 35.4323 34.0329C35.9213 33.5772 36.614 33.2582 37.5919 33.2582H84.6959V36.038C84.6959 36.038 84.3498 36.038 83.6875 36.038M83.6875 45.0152H38.0809C38.0809 45.0152 36.3287 45.1975 36.3287 42.7823C36.3287 42.281 36.3287 41.8253 36.3287 41.4152C36.3287 41.4152 36.3287 40.6861 36.3287 39.638C36.3287 39.2278 36.3287 38.7721 36.3287 38.2709C36.3287 35.8557 38.0809 36.038 38.0809 36.038C38.0809 36.038 66.1455 36.038 83.6875 36.038M83.6875 45.0152C83.6875 45.0152 81.6875 40.5 83.6875 36.038" stroke="#FAFAFA" stroke-miterlimit="10"/>
<path d="M43.0712 21.5H77.282C77.5582 21.5 77.782 21.7239 77.782 22V32C77.782 32.2761 77.5582 32.5 77.282 32.5H43.0712C42.795 32.5 42.5712 32.2761 42.5712 32V22C42.5712 21.7239 42.795 21.5 43.0712 21.5Z" stroke="#FAFAFA" stroke-miterlimit="10"/>
<path d="M75.0387 21H74.1423V33.2582H75.0387V21Z" stroke="#FAFAFA" stroke-miterlimit="10"/>
<path d="M71.0862 21H70.1898V33.2582H71.0862V21Z" stroke="#FAFAFA" stroke-miterlimit="10"/>
<path d="M52.8314 23.2785H45.9043V31.0253H52.8314V23.2785Z" stroke="#FAFAFA" stroke-miterlimit="10"/>
</g>
<defs>
<clipPath id="clip0">
<rect x="32" y="21" width="55" height="54" fill="white"/>
</clipPath>
</defs>
</svg>
