<svg width="98" height="67" viewBox="0 0 98 67" fill="none" xmlns="http://www.w3.org/2000/svg">
<path d="M26.3153 9.55954H26.2703C25.6879 9.55954 25.2156 10.0317 25.2156 10.6142C25.2156 11.1967 25.6879 11.6689 26.2703 11.6689H26.3153C26.8977 11.6689 27.37 11.1967 27.37 10.6142C27.37 10.0317 26.8977 9.55954 26.3153 9.55954Z" fill="#FAFAFA"/>
<path d="M49.3604 24.6719C49.9374 24.6719 50.37 24.1816 50.37 23.6142C50.37 23.0468 49.8652 22.5471 49.2703 22.5595C48.6879 22.5717 48.2174 23.0317 48.2156 23.6142C48.2137 24.2229 48.7517 24.6719 49.3604 24.6719Z" fill="#FAFAFA"/>
<path fill-rule="evenodd" clip-rule="evenodd" d="M49.3604 24.6719C49.9374 24.6719 50.37 24.1816 50.37 23.6142C50.37 23.0468 49.8652 22.5471 49.2703 22.5595C48.6879 22.5717 48.2174 23.0317 48.2156 23.6142C48.2137 24.2229 48.7517 24.6719 49.3604 24.6719Z" fill="#FAFAFA"/>
<path d="M71.3153 9.55954H71.2703C70.6879 9.55954 70.2156 10.0317 70.2156 10.6142C70.2156 11.1967 70.6879 11.6689 71.2703 11.6689H71.3153C71.8977 11.6689 72.37 11.1967 72.37 10.6142C72.37 10.0317 71.8977 9.55954 71.3153 9.55954Z" fill="#FAFAFA"/>
<path fill-rule="evenodd" clip-rule="evenodd" d="M49.3604 24.6719C49.9374 24.6719 50.37 24.1816 50.37 23.6142C50.37 23.0468 49.8652 22.5471 49.2703 22.5595C48.6879 22.5717 48.2174 23.0317 48.2156 23.6142C48.2137 24.2229 48.7517 24.6719 49.3604 24.6719Z" fill="#FAFAFA"/>
<path fill-rule="evenodd" clip-rule="evenodd" d="M73.4148 41.1883H70.3803C69.8894 41.1883 69.4827 40.8738 69.3592 40.3987C66.2974 39.9382 63.534 37.877 62.22 35.0734C62.227 35.1709 62.2339 35.5414 62.2427 36.0087C62.2624 37.0615 62.2913 38.6055 62.3509 38.625C63.0316 38.8472 63.4845 39.3754 63.7406 40.1336C63.7406 40.1336 64.7499 41.1883 65.4999 41.5C65.2013 41.628 63.9999 42 63.9999 42C63.9999 42.6103 63.9812 43.1294 63.9439 43.5708L65.4948 43C65.4708 46.903 65.4999 50.5 65.4999 53C65.4999 53.8732 67.4999 53.9763 67.4999 53C67.4999 51.5 67.2925 48.6638 67.2925 48.6638L71.2233 45.7514L74.6967 48.5558C74.6967 48.5558 74.6967 51.375 74.4695 53C74.3673 53.7308 76.4999 54 76.4999 53C76.4999 50.5312 77.1519 42.7393 77.1519 42.7393L83.4164 45.1591C83.4164 45.1591 80.9999 51.5 80.4999 53C80.2529 53.741 82.2237 54.3284 82.4999 53.5C82.9999 52 85.3846 45.9194 85.3846 45.9194L92.3405 48.6063L92.3596 48.6135C93.8323 49.15 94.9999 52.5 95.4999 53.5C95.8599 54.2201 97.4999 54 97.4999 53.5C97.4999 51.6537 95.5706 47.5425 93.0912 46.635L77.9638 40.7917C80.6308 39.0795 82.5481 36.2975 83.1065 33.0566H83.8641C85.2956 33.0566 86.4602 31.892 86.4602 30.4605V27.8843C86.4602 26.4528 85.2956 25.2882 83.8641 25.2882H83.2742V22.906C83.4479 22.8918 83.618 22.8349 83.7682 22.7361C84.0645 22.541 84.2428 22.21 84.2428 21.8552V18.6338L92.8429 14.2658V18.7025C91.9493 19.1061 91.3256 20.005 91.3256 21.0473V27.1336C91.3256 27.7161 91.7979 28.1883 92.3803 28.1883H95.4148C95.9972 28.1883 96.4695 27.7161 96.4695 27.1336V21.0473C96.4695 20.005 95.8458 19.1061 94.9522 18.7025V12.6456C94.9522 12.6263 94.9503 12.6075 94.9494 12.5884C94.9496 12.5824 94.9502 12.5764 94.9507 12.5704C94.9515 12.5627 94.9522 12.555 94.9522 12.5472C94.9522 12.1501 94.7293 11.7866 94.3751 11.6068L71.7478 0.114302C71.4477 -0.0381006 71.0928 -0.0381006 70.7926 0.114302L48.7701 11.2995L49.3751 11.6068C49.7292 11.7866 49.9522 12.2485 49.9522 12.6456V13.2181L60.4069 18.5281V13.3017C61.6989 12.9288 64.5883 12.1786 67.9506 11.8419C68.5302 11.7839 68.953 11.267 68.895 10.6874C68.8369 10.1078 68.3199 9.68485 67.7405 9.74307C62.9488 10.2228 59.177 11.4667 59.0188 11.5195C58.5881 11.663 58.2975 12.0661 58.2975 12.5201V16.2678L50.9719 12.5471L71.2703 2.2376L91.5687 12.5471L84.2429 16.2678V12.5201C84.2429 12.066 83.9524 11.663 83.5216 11.5195C83.3665 11.4678 79.6679 10.2477 74.9429 9.75752C74.3612 9.69793 73.8451 10.1184 73.785 10.6978C73.7248 11.2771 74.1458 11.7955 74.7251 11.8557C78.0293 12.1985 80.859 12.9338 82.1334 13.3017C82.1334 13.3017 82.3504 20.4515 82.1334 20.3638C78.7616 19 73.4229 20.8666 71.2832 22.6153C69.1436 20.8666 65.9191 19.7992 63.1587 19.9257L72.0451 24.4392C74.2875 22.7581 78.5958 20.8802 81.165 22.023C81.5997 22.2163 81.165 31.0956 81.165 31.0956C81.165 35.34 78.3388 38.9366 74.4695 40.1024V40.1336C74.4695 40.7161 73.9972 41.1883 73.4148 41.1883ZM83.8642 27.3974H83.2743V30.9471H83.8642C84.1326 30.9471 84.3509 30.7288 84.3509 30.4604V27.8842C84.3509 27.6158 84.1326 27.3974 83.8642 27.3974ZM93.8979 20.5847C93.647 20.5847 93.4352 20.7966 93.4352 21.0473V26.0788H94.3604V21.0473C94.3604 20.7965 94.1486 20.5847 93.8979 20.5847ZM71.9136 43.5976L74.849 45.9677L75.0754 42.1223C74.0252 42.4386 72.9126 42.6093 71.7608 42.6093H70.7411C69.4035 42.6093 68.1186 42.3792 66.9234 41.9579L67.1523 46.1424L70.6232 43.5708C71.0094 43.2848 71.54 43.2958 71.9136 43.5976Z" fill="#FAFAFA"/>
<path fill-rule="evenodd" clip-rule="evenodd" d="M75.5186 65.8463L75.4823 65.4621C75.2926 62.8278 73.5706 60.5425 71.0912 59.635L55.9638 53.7917C57.4999 52.5 58.1575 51.9833 59.165 50.5C60.229 48.9335 60.9107 47.1932 61.1065 46.0566H61.8641C63.0627 46.0566 63.7515 45.8426 63.9439 43.5708C63.9812 43.1294 63.9999 42.6103 63.9999 42C63.9999 41.2856 63.9168 40.6552 63.7406 40.1336C63.4845 39.3754 63.0316 38.8472 62.3509 38.625C62.2913 38.6055 62.2624 37.0615 62.2427 36.0087C62.2339 35.5414 62.227 35.1709 62.22 35.0734C62.22 33.8153 62.2428 31.6338 62.2428 31.6338L70.8429 27.2658V31.7025C69.9493 32.1061 69.3256 33.005 69.3256 34.0473L69.3592 40.3987C69.4827 40.8738 69.8894 41.1883 70.3803 41.1883H73.4148C73.9972 41.1883 74.4695 40.7161 74.4695 40.1336V40.1024V34.0473C74.4695 33.005 73.8458 32.1061 72.9522 31.7025V25.6456C72.9522 25.6263 72.9503 25.6075 72.9494 25.5884C72.9499 25.5746 72.9522 25.5611 72.9522 25.5472C72.9522 25.1501 72.7293 24.7866 72.3751 24.6068L72.0451 24.4392L63.1587 19.9257L60.4069 18.5281L49.9522 13.2181C49.2412 13.0804 48.7649 13.1429 48.1134 13.4592C46.9999 14 37.2284 18.9878 37.2284 18.9878L35.3532 19.9402L26.1653 24.6067C26.0788 24.6507 26 24.7056 25.9305 24.7694C25.7156 24.9663 25.5882 25.2471 25.5882 25.5471C25.5882 25.9442 25.8113 26.3076 26.1653 26.4874L36.1537 31.5605L36.2976 31.6336V34.8665C36.2976 35.2217 36.4764 35.5531 36.7734 35.7481C36.9091 35.8373 37.0615 35.8909 37.2178 35.911L37.2275 35.9122V38.288H36.6376C36.2483 38.288 35.8788 38.3741 35.547 38.5283C34.9834 38.7903 34.5289 39.2486 34.272 39.815C34.124 40.1412 34.0415 40.8271 34.0415 41.208V43.4603L34.0415 43.4692C34.0463 44.8966 35.2091 46.0564 36.6376 46.0564H37.3952C37.4648 46.4605 37.5556 46.8575 37.6663 47.2461C37.9511 48.2459 38.3679 49.1905 38.8966 50.06C39.2955 50.7159 39.758 51.329 40.2756 51.8907C40.8952 52.5631 41.5936 53.1617 42.3561 53.6718L41.5325 54L27.4094 59.6275C24.9462 60.54 23.2342 62.8189 23.0432 65.4398L23.0046 65.8453C22.9765 66.141 23.0744 66.435 23.2743 66.6549C23.474 66.8747 23.7574 67 24.0545 67H74.4685C74.7654 67 75.0487 66.8748 75.2486 66.6552C75.4484 66.4356 75.5464 66.1419 75.5186 65.8463ZM61.8642 40.3974H61.2743V43.9471H61.8642C62.1326 43.9471 62.3509 43.7288 62.3509 43.4604V40.8842C62.3509 40.6158 62.1326 40.3974 61.8642 40.3974ZM71.8979 33.5847C71.647 33.5847 71.4352 33.7966 71.4352 34.0473C71.4352 34.0473 71.4999 38 71.4352 39.0788C71.4242 39.2613 71.6611 39.502 71.8979 39.5C72.1292 39.498 72.3604 39.2574 72.3604 39.0788V34.0473C72.3604 33.7965 72.1486 33.5847 71.8979 33.5847ZM36.6375 43.9472H37.2274V42.4386V40.3975H36.6375C36.3691 40.3975 36.1508 40.6158 36.1508 40.8842V42.0227V43.4604C36.1508 43.7288 36.3692 43.9471 36.6375 43.9472ZM36.2975 25.5201C36.2975 25.0661 36.5473 24.6182 37.0188 24.5195C37.7635 24.3636 38.5585 24.1701 39.393 23.9669C41.3386 23.4934 43.4994 22.9675 45.7405 22.7431C45.9499 22.722 46.1512 22.7638 46.3256 22.8532C46.6336 23.011 46.8579 23.3173 46.895 23.6874C46.9395 24.1322 46.7009 24.54 46.3256 24.7319C46.2118 24.7901 46.0854 24.8284 45.9506 24.8419C43.8078 25.0565 41.857 25.439 40.3894 25.7847C39.5542 25.9815 38.8755 26.1664 38.4069 26.3017V33.3714C39.472 33.0673 40.5742 32.9138 41.7 32.9138C44.4859 32.9138 47.1436 33.8666 49.2832 35.6153C51.2749 33.9876 56.0386 32.2576 59.4074 33.1261C59.6244 33.2138 59.4999 26 59.4999 26C58.2254 25.6321 56.0293 25.1985 52.7251 24.8557C52.1457 24.7955 51.7248 24.2771 51.7849 23.6978C51.8451 23.1184 52.3612 22.6979 52.9429 22.7575C56.8357 23.1614 60.4297 24.1863 61.5216 24.5195C61.9523 24.663 62.2429 25.066 62.2429 25.5201V29.2678L69.5687 25.5471L62.5084 21.9612L49.2702 15.2376L39.2428 20.3305L28.972 25.5471L36.2445 29.2409L36.2975 29.2678V25.5201ZM49.2833 38.0781C47.4293 36.2976 41.7616 34 39.3368 35.3075C38.9494 35.5163 39.1846 41.0648 39.292 43.2361C39.292 44.3553 39.5333 46.2891 39.8937 47.2855C40.5766 49.174 41.848 50.7832 43.4853 51.8907C43.9657 52.2157 44.4777 52.4975 45.0156 52.7304C46.1585 53.2255 47.9152 53.507 49.4999 53.5C54.3188 53.4788 58.186 49.4684 58.9326 46.1782C59.0847 45.5081 59.165 44.8111 59.165 44.0956C59.165 44.0956 59.1919 43.5455 59.2257 42.7161C59.3275 40.2134 59.4915 35.1682 59.165 35.023C56.2616 33.7315 51.1374 36.2977 49.2833 38.0781ZM28.1515 61.6021C26.6814 62.1431 25.5998 63.3929 25.2531 64.8906H36.744L34.634 59.0195L28.1776 61.5921L28.1515 61.6021ZM36.5948 58.2382L38.9855 64.8906H43.3694L42.8317 55.753L36.5948 58.2382ZM45.4823 64.8906H52.5003L52.6967 61.5558L49.2233 58.7514L45.2925 61.6638L45.4823 64.8906ZM49.9136 56.5976L52.849 58.9677L53.0754 55.1223C52.0252 55.4386 50.9126 55.6093 49.7608 55.6093H48.7411C47.4035 55.6093 46.1186 55.3792 44.9234 54.9579L45.1523 59.1424L48.6232 56.5708C49.0094 56.2848 49.5399 56.2958 49.9136 56.5976ZM55.1519 55.7393L54.6133 64.8906H58.9973L61.4163 58.1591L55.1519 55.7393ZM63.3846 58.9194L61.2387 64.8907H73.2681C72.9165 63.3948 71.8323 62.15 70.3596 61.6135L70.3405 61.6063L63.3846 58.9194Z" fill="#FAFAFA"/>
<path fill-rule="evenodd" clip-rule="evenodd" d="M49.3604 24.6719C49.9374 24.6719 50.37 24.1816 50.37 23.6142C50.37 23.0468 49.8652 22.5471 49.2703 22.5595C48.6879 22.5717 48.2174 23.0317 48.2156 23.6142C48.2137 24.2229 48.7517 24.6719 49.3604 24.6719Z" fill="#FAFAFA"/>
<path fill-rule="evenodd" clip-rule="evenodd" d="M36.2976 34.8665V31.6336L36.1537 31.5605C36.1455 31.7267 36.1331 31.8919 36.1164 32.0558C35.6339 36.7921 31.6222 40.5 26.7608 40.5H25.7411C20.5555 40.5 16.3368 36.2812 16.3368 31.0956C16.3368 31.0956 15.8548 22.5674 16.3368 22.3075C18.6234 21.0745 23.7938 23.0474 25.9305 24.7694C26 24.7056 26.0788 24.6507 26.1653 24.6067L35.3532 19.9402C32.1087 19.6044 28.0747 21.1512 26.2832 22.6153C24.1436 20.8666 21.4859 19.9138 18.7 19.9138C17.5743 19.9138 16.472 20.0673 15.4069 20.3714V13.3017C16.6989 12.9288 19.5883 12.1786 22.9506 11.8419C23.5302 11.7839 23.953 11.267 23.895 10.6874C23.8369 10.1078 23.3199 9.68485 22.7405 9.74307C17.9488 10.2228 14.177 11.4667 14.0188 11.5195C13.5881 11.663 13.2975 12.0661 13.2975 12.5201V16.2678L5.97195 12.5471L26.2703 2.2376L46.5687 12.5471L39.2429 16.2678V12.5201C39.2429 12.066 38.9523 11.663 38.5216 11.5195C38.3665 11.4678 34.6679 10.2477 29.9429 9.75752C29.3612 9.69793 28.8451 10.1184 28.785 10.6978C28.7248 11.2771 29.1458 11.7955 29.7251 11.8557C33.0293 12.1985 35.8589 12.9338 37.1334 13.3017C37.1334 13.3017 37.2436 16.9326 37.2284 18.9878C37.2284 18.9878 46.9999 14 48.1134 13.4592C48.7649 13.1429 49.2412 13.0804 49.9522 13.2181V12.6456C49.9522 12.2485 49.7292 11.7866 49.3751 11.6068L48.7701 11.2995L26.7478 0.114302C26.4477 -0.0381006 26.0928 -0.0381006 25.7926 0.114302L3.16532 11.6067C2.81137 11.7865 2.5882 12.15 2.5882 12.5471C2.5882 12.9442 2.81126 13.3076 3.16532 13.4874L13.2976 18.6336V21.8665C13.2976 22.2217 13.4764 22.5531 13.7734 22.7481C13.912 22.8391 14.0678 22.8931 14.2275 22.9122V25.288H13.6376C12.2061 25.288 11.0415 26.4526 11.0415 27.8841V30.4603C11.0415 31.8918 12.2061 33.0564 13.6376 33.0564H14.3952C14.9409 36.2231 16.7841 38.9512 19.3562 40.6718L4.40943 46.6275C1.96723 47.5322 1.01616 49.9581 0.0677272 52.3773L0.0432372 52.4398C-0.31353 53.3496 1.64439 53.7109 1.99985 53C2.49988 52 3.68138 49.1431 5.15151 48.6021L5.17756 48.5921L11.634 46.0195C11.634 46.0195 13.4999 52.5 13.9999 54C14.2469 54.7409 16.3999 54.5 15.9999 53.5C14.9999 51 13.5948 45.2382 13.5948 45.2382L19.8317 42.753C19.8317 42.753 20.4999 51 20.4999 53C20.4999 54.5 22.2925 54.3438 22.2925 53C22.2925 51.5 22.2925 48.6638 22.2925 48.6638L26.2233 45.7514L29.6967 48.5558C29.6967 48.5558 29.4999 51.5 29.4999 53C29.4999 53.8732 31.4999 53.8732 31.4999 53C31.4999 50 32.1519 42.7393 32.1519 42.7393L34.0415 43.4692L34.0415 43.4603V41.208L32.9638 40.7917C33.4232 40.4968 33.8602 40.1702 34.272 39.815C34.5289 39.2486 34.9834 38.7903 35.547 38.5283C36.2151 37.7396 36.7792 36.86 37.2178 35.911C37.0615 35.8909 36.9091 35.8373 36.7734 35.7481C36.4764 35.5531 36.2976 35.2217 36.2976 34.8665ZM13.6375 30.9472H14.2274V27.3975H13.6375C13.3691 27.3975 13.1508 27.6158 13.1508 27.8842V30.4604C13.1508 30.7288 13.3692 30.9471 13.6375 30.9472ZM26.9136 43.5976L29.849 45.9677L30.0754 42.1223C29.0252 42.4386 27.9126 42.6093 26.7608 42.6093H25.7411C24.4035 42.6093 23.1186 42.3792 21.9234 41.9579L22.1523 46.1424L25.6232 43.5708C26.0094 43.2848 26.5399 43.2958 26.9136 43.5976Z" fill="#FAFAFA"/>
</svg>
