<svg width="55" height="54" viewBox="0 0 55 54" fill="none" xmlns="http://www.w3.org/2000/svg">
<path d="M52.6875 50.757H53.6959V53.5367H6.63264C5.12499 53.5367 4.35079 52.8076 3.90257 51.9873C-0.090682 45.562 3.37285 40.9595 4.22854 40.0025C4.26929 39.957 4.26929 39.957 4.31004 39.9114C4.35079 39.8658 4.39153 39.8203 4.43228 39.7747C4.92125 39.319 5.61396 39 6.5919 39H53.6959V41.7797C53.6959 41.7797 53.3498 41.7797 52.6875 41.7797M52.6875 50.757H7.08086C7.08086 50.757 5.32873 50.9392 5.32873 48.5241C5.32873 48.0228 5.32873 47.5671 5.32873 47.157C5.32873 47.157 5.32873 46.4278 5.32873 45.3797C5.32873 44.9696 5.32873 44.5139 5.32873 44.0127C5.32873 41.5975 7.08086 41.7797 7.08086 41.7797C7.08086 41.7797 35.1455 41.7797 52.6875 41.7797M52.6875 50.757C52.6875 50.757 50.6875 46.2418 52.6875 41.7797" stroke="#FAFAFA" stroke-miterlimit="10"/>
<path d="M3.69879 27.2949H54.0185C54.2946 27.2949 54.5185 27.5188 54.5185 27.7949V38.0532C54.5185 38.3293 54.2946 38.5532 54.0185 38.5532H3.69879C3.42265 38.5532 3.19879 38.3293 3.19879 38.0532V27.7949C3.19879 27.5188 3.42265 27.2949 3.69879 27.2949Z" stroke="#FAFAFA" stroke-miterlimit="10"/>
<path d="M19.3237 29.8025H5.87708V36.5468H19.3237V29.8025Z" stroke="#FAFAFA" stroke-miterlimit="10"/>
<path d="M51.6875 24.0152H52.6959V26.7949H5.63264C4.12499 26.7949 3.35079 26.0658 2.90257 25.2456C-1.09068 18.8203 2.37285 14.2177 3.22854 13.2608C3.26929 13.2152 3.26929 13.2152 3.31004 13.1696C3.35079 13.124 3.39153 13.0785 3.43228 13.0329C3.92125 12.5772 4.61396 12.2582 5.5919 12.2582H52.6959V15.038C52.6959 15.038 52.3498 15.038 51.6875 15.038M51.6875 24.0152H6.08086C6.08086 24.0152 4.32873 24.1975 4.32873 21.7823C4.32873 21.281 4.32873 20.8253 4.32873 20.4152C4.32873 20.4152 4.32873 19.6861 4.32873 18.638C4.32873 18.2278 4.32873 17.7721 4.32873 17.2709C4.32873 14.8557 6.08086 15.038 6.08086 15.038C6.08086 15.038 34.1455 15.038 51.6875 15.038M51.6875 24.0152C51.6875 24.0152 49.6875 19.5 51.6875 15.038" stroke="#FAFAFA" stroke-miterlimit="10"/>
<path d="M11.0712 0.5H45.282C45.5582 0.5 45.782 0.72386 45.782 1V11C45.782 11.2761 45.5582 11.5 45.282 11.5H11.0712C10.795 11.5 10.5712 11.2761 10.5712 11V1C10.5712 0.723858 10.795 0.5 11.0712 0.5Z" stroke="#FAFAFA" stroke-miterlimit="10"/>
<path d="M43.0387 0H42.1423V12.2582H43.0387V0Z" stroke="#FAFAFA" stroke-miterlimit="10"/>
<path d="M39.0862 0H38.1898V12.2582H39.0862V0Z" stroke="#FAFAFA" stroke-miterlimit="10"/>
<path d="M20.8314 2.27849H13.9043V10.0253H20.8314V2.27849Z" stroke="#FAFAFA" stroke-miterlimit="10"/>
</svg>
