<?xml version="1.0" encoding="utf-8"?>
<!-- Generator: Adobe Illustrator 22.1.0, SVG Export Plug-In . SVG Version: 6.00 Build 0)  -->
<svg version="1.1" id="Camada_1" xmlns="http://www.w3.org/2000/svg" xmlns:xlink="http://www.w3.org/1999/xlink" x="0px" y="0px"
	 viewBox="0 0 512 512" style="enable-background:new 0 0 512 512;" xml:space="preserve">
<path d="M452,120c-33.1,0-60-26.9-60-60s26.9-60,60-60s60,26.9,60,60S485.1,120,452,120z M452,20c-22.1,0-40,17.9-40,40
	s17.9,40,40,40s40-17.9,40-40S474.1,20,452,20z"/>
<path d="M267.8,110.4H10c-5.5,0-10-4.5-10-10c0-34.6,28.6-62.6,63.4-61.6C78.1,14.7,104,0,132.6,0c23.4,0,45.8,10.3,61.1,27.8
	c5.3-1.3,10.8-2,16.4-2c37.5,0,68.1,30.5,68.1,68.1c0,2.5-0.1,5-0.4,7.6C277.1,106.6,272.9,110.4,267.8,110.4z M21.2,90.4H258
	c-1.8-24.9-22.6-44.6-48-44.6c-5.7,0-11.3,1-16.6,2.9c-4.2,1.5-8.9,0.1-11.5-3.5C170.5,29.4,152,20,132.6,20
	C109.3,20,88.4,33,78,53.8c-1.9,3.9-6.1,6-10.4,5.4c-2-0.3-4-0.4-6-0.4C42.1,58.8,25.7,72.3,21.2,90.4z"/>
<path d="M447.5,468.6c-0.6,0-1.3-0.1-1.9-0.2c-0.6-0.1-1.3-0.3-1.9-0.6c-0.6-0.3-1.2-0.6-1.7-0.9c-0.6-0.4-1.1-0.8-1.5-1.3
	c-0.5-0.5-0.9-1-1.3-1.5c-0.4-0.5-0.7-1.1-0.9-1.7c-0.3-0.6-0.4-1.2-0.6-1.9c-0.1-0.6-0.2-1.3-0.2-2c0-0.7,0.1-1.3,0.2-2
	c0.1-0.6,0.3-1.3,0.6-1.9c0.3-0.6,0.6-1.2,0.9-1.7c0.4-0.6,0.8-1.1,1.2-1.5c0.5-0.5,1-0.9,1.5-1.2c0.5-0.4,1.1-0.7,1.7-0.9
	c0.6-0.3,1.2-0.4,1.9-0.6c1.3-0.3,2.6-0.3,3.9,0c0.6,0.1,1.3,0.3,1.9,0.6s1.2,0.6,1.7,0.9c0.5,0.4,1.1,0.8,1.5,1.2s0.9,1,1.2,1.5
	c0.4,0.5,0.7,1.1,0.9,1.7c0.3,0.6,0.4,1.2,0.6,1.9c0.1,0.6,0.2,1.3,0.2,2c0,0.6-0.1,1.3-0.2,2c-0.1,0.6-0.3,1.3-0.6,1.9
	c-0.3,0.6-0.6,1.2-0.9,1.7c-0.4,0.6-0.8,1.1-1.2,1.5c-0.5,0.5-1,0.9-1.5,1.3c-0.6,0.4-1.1,0.7-1.7,0.9s-1.2,0.4-1.9,0.6
	C448.8,468.5,448.1,468.6,447.5,468.6z"/>
<path d="M502,405.2h-18.5V293.8l3,2.2c1.8,1.3,3.8,1.9,5.9,1.9c1.5,0,3.1-0.4,4.5-1.1c3.4-1.7,5.5-5.2,5.5-8.9v-54.8
	c0-3.2-1.5-6.2-4.1-8.1L361.6,124.7c-3.5-2.6-8.3-2.6-11.8,0l-60.1,44.1l-27.7-20.4c-3.5-2.6-8.3-2.6-11.8,0l-27.7,20.4l-60.1-44.1
	c-3.5-2.6-8.3-2.6-11.8,0L13.7,225.2c-2.6,1.9-4.1,4.9-4.1,8.1V288c0,3.8,2.1,7.2,5.5,8.9c1.4,0.7,3,1.1,4.5,1.1
	c2.1,0,4.2-0.7,5.9-1.9l3-2.2v111.4H10c-5.5,0-10,4.5-10,10V502c0,5.5,4.5,10,10,10h492c5.5,0,10-4.5,10-10v-86.8
	C512,409.7,507.5,405.2,502,405.2z M463.5,279.1l0,126.1h-79.6l0-87.6l3,2.2c0.1,0,0.1,0.1,0.2,0.1c0,0,0,0,0.1,0
	c0,0,0.1,0.1,0.1,0.1c0,0,0,0,0.1,0c0,0,0.1,0,0.1,0.1c0,0,0,0,0.1,0c0,0,0.1,0,0.1,0.1c0,0,0,0,0.1,0c0,0,0.1,0,0.1,0.1
	c0,0,0,0,0.1,0c0,0,0.1,0.1,0.1,0.1c0,0,0,0,0,0c0.1,0.1,0.2,0.1,0.3,0.2c0,0,0,0,0,0c0,0,0.1,0.1,0.1,0.1c0,0,0,0,0,0
	c0,0,0.1,0,0.1,0.1c0,0,0,0,0,0c0.1,0,0.1,0,0.1,0.1c0,0,0,0,0,0c2.3,1,4.9,1.1,7.3,0.3c0,0,0,0,0,0c0.2-0.1,0.3-0.1,0.5-0.2
	c0,0,0,0,0,0c0,0,0.1,0,0.1,0c0,0,0,0,0.1,0c0,0,0.1,0,0.1,0s0.1,0,0.1,0c0,0,0,0,0.1,0c0,0,0.1,0,0.1,0c0,0,0,0,0.1,0
	c0.1,0,0.1,0,0.1-0.1c3.4-1.7,5.5-5.2,5.5-8.9V257c0-3.2-1.5-6.2-4.1-8.1l-54.9-40.3l11.8-8.7L463.5,279.1z M278.7,448.6h-45.3
	v-59.7h45.3V448.6z M288.7,368.9h-65.3c-5.5,0-10,4.5-10,10v69.7h-65.2V302.9L256,223.7l107.8,79.2l0,145.7h-65.2v-69.7
	C298.7,373.4,294.2,368.9,288.7,368.9z M355.6,145.2l126.8,93.1v29.9l-120.8-88.8c-3.2-2.4-7.6-2.6-11-0.6c-0.3,0.2-0.6,0.4-0.8,0.6
	l-22.8,16.8l-20.4-15L355.6,145.2z M256,168.9l126.8,93.1V292l-3-2.2l-117.8-86.6c-0.3-0.2-0.6-0.4-0.8-0.6c-3.1-1.8-7-1.8-10.1,0
	c-0.3,0.2-0.6,0.4-0.9,0.6l-117.8,86.6l-3,2.2v-29.9L256,168.9z M29.6,238.3l126.8-93.1l49.1,36.1l-20.4,15l-22.8-16.8
	c-3.5-2.6-8.3-2.6-11.8,0L29.6,268.2V238.3z M48.5,279.1l107.8-79.2l11.8,8.7l-54.9,40.3c0,0-0.1,0.1-0.1,0.1
	c-2.1,1.6-3.4,3.8-3.8,6.4c0,0.1,0,0.2,0,0.3s0,0.2,0,0.3c0,0.3-0.1,0.7-0.1,1v54.8c0,3.8,2.1,7.2,5.5,8.9c0.1,0,0.1,0.1,0.2,0.1
	c1.1,0.5,2.3,0.9,3.6,1c2.4,0.2,4.8-0.5,6.7-1.9l3-2.2v87.6H48.5L48.5,279.1z M128.2,425.2v23.4H20v-23.4H128.2z M492,492H20v-23.4
	h387c5.5,0,10-4.5,10-10c0-5.5-4.5-10-10-10h-23.2v-23.4H492V492z"/>
<path d="M256,348c-23.9,0-43.3-19.4-43.3-43.3c0-23.9,19.4-43.3,43.3-43.3s43.3,19.4,43.3,43.3C299.3,328.6,279.9,348,256,348z
	 M256,281.4c-12.8,0-23.3,10.4-23.3,23.3S243.2,328,256,328s23.3-10.4,23.3-23.3S268.8,281.4,256,281.4z"/>
</svg>
