<svg width="50" height="50" viewBox="0 0 50 50" fill="none" xmlns="http://www.w3.org/2000/svg">
<path fill-rule="evenodd" clip-rule="evenodd" d="M8.33333 14.8148V43.9815H37.5V46.7593H8.33333C6.04166 46.7593 5.55555 46.2732 5.55555 43.9815L5.09259 14.8148H8.33333ZM41.6667 6.48149C43.9583 6.48149 45.8333 8.35649 45.8333 10.6482V35.6482C45.8333 37.9398 43.9583 39.8148 41.6667 39.8148H16.6667C14.375 39.8148 12.5 37.9398 12.5 35.6482V10.6482C12.5 8.35649 14.375 6.48149 16.6667 6.48149H23.2917C24.1667 4.06482 26.4583 2.31482 29.1667 2.31482C31.875 2.31482 34.1667 4.06482 35.0417 6.48149H41.6667ZM24.0741 12.037V9.72223L15.2778 9.95371V36.8056H42.5926V9.25926H34.7222V12.037H24.0741ZM31.25 31.4815H20.8333V28.7037H31.25V31.4815ZM37.5 21.7593H20.8333V18.9815H37.5V21.7593ZM28.2407 13.8889V16.6667H37.5V13.8889H28.2407ZM20.8333 13.8889V16.6667H25.463V13.8889H20.8333ZM20.8333 24.0741V26.3889H37.5V24.0741H20.8333ZM34.7222 31.4815V28.7037H37.5V31.4815H34.7222ZM29.1667 9.25926C30.4451 9.25926 31.4815 8.22289 31.4815 6.94445C31.4815 5.66601 30.4451 4.62963 29.1667 4.62963C27.8882 4.62963 26.8519 5.66601 26.8519 6.94445C26.8519 8.22289 27.8882 9.25926 29.1667 9.25926Z" fill="#FAFAFA" fill-opacity="0.9"/>
</svg>
