<?xml version="1.0" encoding="utf-8"?>
<!-- Generator: Adobe Illustrator 22.1.0, SVG Export Plug-In . SVG Version: 6.00 Build 0)  -->
<svg version="1.1" id="Capa_1" xmlns="http://www.w3.org/2000/svg" xmlns:xlink="http://www.w3.org/1999/xlink" x="0px" y="0px"
	 viewBox="0 0 512 438.3" style="enable-background:new 0 0 512 438.3;" xml:space="preserve">
<g>
	<path d="M504.9,108.5L320.2,1.9c-3.3-1.9-7.1-2.4-10.8-1.4c-3.7,1-6.7,3.3-8.6,6.6l-12.7,22c-1.8-0.3-3.6-0.5-5.5-0.5H156.9
		c-4.1,0-7.5,3.4-7.5,7.5s3.4,7.5,7.5,7.5h125.6c9,0,16.4,7.3,16.4,16.4v347c0,9-7.3,16.4-16.4,16.4H61.1c-9,0-16.4-7.3-16.4-16.4
		v-45.3h19c5.9,0,10.7-4.8,10.7-10.7v-19.4c0-5.9-4.8-10.7-10.7-10.7H10.7c-5.9,0-10.7,4.8-10.7,10.7v19.4c0,5.9,4.8,10.7,10.7,10.7
		h19V407c0,17.3,14.1,31.4,31.4,31.4h221.5c17.3,0,31.4-14.1,31.4-31.4V271.1l47.7,27.5c1.2,0.7,2.5,1,3.7,1c2.6,0,5.1-1.3,6.5-3.8
		c2.1-3.6,0.8-8.2-2.7-10.2l-55.2-31.9v-23.2l65.3,37.7c1.2,0.7,2.5,1,3.7,1c2.6,0,5.1-1.3,6.5-3.8c2.1-3.6,0.8-8.2-2.7-10.2
		l-72.8-42V190l82.8,47.8c1.2,0.7,2.5,1,3.7,1c2.6,0,5.1-1.3,6.5-3.8c2.1-3.6,0.8-8.2-2.7-10.2l-90.3-52.1v-23.2l100.4,57.9
		c1.2,0.7,2.5,1,3.7,1c2.6,0,5.1-1.3,6.5-3.8c2.1-3.6,0.8-8.2-2.7-10.2l-107.9-62.3V60c0-10-4.7-18.9-12.1-24.7l11.6-20l183.3,105.8
		L338,396.1c-3.5-1.5-7.6-0.3-9.5,3.1c-2.1,3.6-0.8,8.2,2.7,10.2c2.2,1.3,4.7,1.9,7.1,1.9c4.9,0,9.7-2.5,12.3-7.1L510.1,128
		C514,121.2,511.7,112.5,504.9,108.5z M15,335.8h44.4v10.9H15V335.8z"/>
	<path d="M431,118.3l-82.3-47.5c-3.6-2.1-8.2-0.8-10.2,2.7c-2.1,3.6-0.8,8.2,2.7,10.2l82.3,47.5c1.2,0.7,2.5,1,3.7,1
		c2.6,0,5.1-1.3,6.5-3.8C435.8,125,434.6,120.4,431,118.3z"/>
	<path d="M10.7,116.6h19v55.6c0,4.1,3.4,7.5,7.5,7.5s7.5-3.4,7.5-7.5v-55.6h19c5.9,0,10.7-4.8,10.7-10.7V86.4
		c0-5.9-4.8-10.7-10.7-10.7h-19V60c0-9,7.3-16.4,16.4-16.4H127c4.1,0,7.5-3.4,7.5-7.5s-3.4-7.5-7.5-7.5H61.1
		c-17.3,0-31.4,14.1-31.4,31.4v15.6h-19C4.8,75.7,0,80.5,0,86.4v19.4C0,111.8,4.8,116.6,10.7,116.6z M15,90.7h44.4v10.9H15V90.7z"/>
	<path d="M10.7,239.1h19v59.3c0,4.1,3.4,7.5,7.5,7.5s7.5-3.4,7.5-7.5v-59.3h19c5.9,0,10.7-4.8,10.7-10.7v-19.4
		c0-5.9-4.8-10.7-10.7-10.7H10.7C4.8,198.2,0,203,0,208.9v19.4C0,234.3,4.8,239.1,10.7,239.1z M15,213.2h44.4v10.9H15V213.2z"/>
	<path d="M103.6,110.8v39c0,7.1,5.8,12.9,12.9,12.9H227c7.1,0,12.9-5.8,12.9-12.9v-39c0-7.1-5.8-12.9-12.9-12.9H116.5
		C109.4,97.9,103.6,103.7,103.6,110.8z M118.6,112.9h106.3v34.8H118.6V112.9z"/>
</g>
</svg>
